<svg viewBox="0 0 47.1 48" version="1.1" xmlns="http://www.w3.org/2000/svg" id="Camada_1">
  
  <defs>
    <style>
      .st0 {
        fill: #fff;
      }

      .st1 {
        fill: #221f1f;
      }
    </style>
  </defs>
  <path d="M23.6,0C10.5,0,0,10.7,0,24s10.5,24,23.6,24,23.6-10.7,23.6-24S36.6,0,23.6,0Z" class="st1"></path>
  <g>
    <path d="M27,14.3h-.1c0,.1,0,.2-.1.2-.5.4-1.4,1.8-1.6,2.3-.1.3,0,.6.2.9.2.2.6.5.8.5.4.1,1.7.2,2.7-.7l.8.8c.2.2.4.2.6.2.2,0,.5-.1.6-.3l-1.2-1.3h0c.6-.7.5-1.8-.2-2.5-.7-.7-1.8-.9-2.5-.2Z" class="st0"></path>
    <path d="M26.8,21.8c-.5,1.4-1.5,2.6-2.2,3.5,0,.4,0,.7,0,.8,0,.1.2,1,.5,2l1.5,1.4c-.2-1.2-.4-3.1-.4-3.4,0-.4.6-2.8.6-3.9,0-.1,0-.3,0-.4Z" class="st0"></path>
    <path d="M26.4,30.5c-1.1-1-4.6-4.3-4.6-4.3-.2-.2-.2-.4,0-.6.2-.2.5-.2.6,0l.3.3c.5-.5,1.4-1.4,1.9-2,.5-.6,2.1-2.3,1.7-3.2-.2-.4-1.1-2-1.1-2-.5-.8-.9-1.5-1.3-2,0,0-2.1-3.2-2.2-3.4-.1-.2-.2-.8.3-.9.8-.3,2.8-1.4,3.6-1.8.2-.1.5-.2.7-.2.3,0,.5,0,.8-.1.3,0,.6-.2.9-.3.2,0,.8-.5.9-.7,0-.2-.3-.5-.5-.6-.2-.1-.8,0-1.1,0-.2,0-.6,0-.8,0-.2,0-1.2.6-1.3.7-.3,0-4.8,1.2-5.7,1.7-.3.2-.7.6-.6,1,.4,2.6,1.9,5.7,1.6,6.9-1,1.7-2.6,4.3-3,4.9-.6.8-1.3,1.5-2.2,2.4-.7.7-1.4,2.2-1.8,3.1-.2.4-.2.8-.2,1.2,0,.4.2,7.6.2,7.6,0,0,3.8,0,3.8-1.9,0-1.9-.2-4.2-.2-4.7,0-.5,1.4-2.1,1.8-2.2.4-.1,2.3.6,2.5.8.2.2,7,6.7,8,7.4.9.6,3.2.5,4.3.3-.8-1.2-5.8-6.1-6.9-7.1Z" class="st0"></path>
  </g>
</svg>