<svg xmlns="http://www.w3.org/2000/svg" fill="none" viewBox="0 0 48 48" height="48" width="48">
<circle fill="#161003" r="24" cy="24" cx="24"></circle>
<path fill="white" d="M26.0551 16.3072C26.1242 16.2055 26.2137 16.1194 26.3181 16.0545C26.4224 15.9896 26.5393 15.9472 26.661 15.9303C26.7827 15.9133 26.9066 15.9221 27.0247 15.956C27.1428 15.9899 27.2525 16.0482 27.3467 16.1272L34.0056 20.5524C34.3126 20.8065 33.6456 21.0923 32.7669 20.8488C31.8883 20.6053 29.4852 19.2926 27.8125 18.5515C27.5796 18.4457 27.1879 18.3504 26.9974 18.6574C26.6268 19.2397 26.0234 20.1501 25.4729 21.0182C27.6961 22.6486 28.1089 25.2529 31.306 26.6292C31.8186 26.8363 32.2472 27.209 32.5235 27.6878C30.4151 27.3307 28.3596 26.7119 26.4045 25.8458C24.338 25.0101 22.2156 24.3203 20.0527 23.7813C20.4738 22.8247 21.0457 21.9419 21.7465 21.1664C22.5193 20.0972 25.5047 16.8365 26.0022 16.3072H26.0551ZM17.459 16.8894C18.0209 16.4901 18.6864 16.2621 19.3751 16.233C19.7609 16.2483 20.1331 16.3798 20.443 16.6103C20.7528 16.8408 20.9857 17.1595 21.1113 17.5246C21.3229 18.1713 21.3446 18.8651 21.1739 19.5237C21.0031 20.1823 20.6471 20.7782 20.1479 21.2405C19.8292 21.4575 19.4686 21.6054 19.0893 21.6746C18.9081 21.7034 18.7224 21.6787 18.555 21.6035C18.3876 21.5283 18.2458 21.4058 18.1471 21.2511C17.571 20.2691 17.1698 19.1944 16.9614 18.0751C16.9334 17.8562 16.9592 17.6338 17.0367 17.4271C17.1142 17.2205 17.241 17.0359 17.406 16.8894H17.459ZM29.9192 33.087C23.398 32.1872 16.2203 22.945 8.16406 27.7408C18.7505 17.2917 33.9421 36.5701 37.2556 25.4011C39.754 29.117 36.324 33.9763 29.8663 33.087H29.9192Z"></path>
</svg>
