<svg viewBox="0 0 47.1 48" version="1.1" xmlns="http://www.w3.org/2000/svg" id="Camada_1">
  
  <defs>
    <style>
      .st0 {
        fill: #fff;
      }

      .st1 {
        fill: #221f1f;
      }
    </style>
  </defs>
  <g>
    <path d="M22.4,8.7c0-.4.3-.8.7-1,.6-.3,1.3-.4,1.8-.3.4,0,1.2.5,1.3,1.5.3,1.8-1.1,3-1.5,3.2-.2.1-.8.2-1.1.2-.4,0-.7-.2-.8-.5-.2-.6-.6-2.3-.5-3Z" class="st0"></path>
    <path d="M10.5,11.8c.1-.2.7-.3.9-.2.2,0,.5.6.6.6.5,0,3.5.4,4.5.5,1.3.1,4.4.3,6.3.4-.9.4-1.7,1.4-1.7,3-1.5-.5-4-1.3-4.9-1.6-1-.3-4.1-1.2-4.6-1.3-.1,0-.2,0-.3,0-.2,0-.7-.1-.8-.2,0,0-.2-.1-.3-.3-.1-.2,0-.7.3-.9Z" class="st0"></path>
    <path d="M26.2,33.4c0,1,.8,6.9.7,7.6,0,.7-.5,1.7-1.6,1.9-.2-.6-1.7-9.5-1.8-10.2,0-.5-.5-3.9-.6-6.3.6.2,1.4.2,2,.2s1.4-.2,2-.5c-.2,1.9-.8,6.4-.8,7.2Z" class="st0"></path>
    <path d="M32.5,16.7c-.1.3-1.3,2.3-2.7,3.9,0,.2-.1.6-.4.9-.1.2-.6.3-.9.1-.3-.2-.5-.5-.4-.7,0-.3.3-.6.4-.7,0,0,.5-.3.5-.4,0,0,.3-.2.5-.5.3-.8.5-1.2.6-1.7,0-.3,0-.5-.3-.6-.7-.2-1.5-.5-2.3-.8.1,1.7-1.1,3.9,0,6.7.3.8.2,1.3-.1,1.9-.3.6-1.3,1-2.3,1s-1.4-.1-2.1-.3c-1.2-.4-4.4-2.2-5.5-2.4-1-.2-7-1.3-7.7-1.6-.7-.2-1.5-1.1-1.3-1.9.6,0,9.6,1.2,10.3,1.3.4,0,2.3.4,4.2.8,0-2-1-3.9-.7-5.9.3-2.1,1.9-2.7,2.9-2.7,2.1,0,6,2.1,7,2.7.4.3.6.5.4,1Z" class="st0"></path>
  </g>
  <ellipse ry="24" rx="23.6" cy="24" cx="23.6" class="st1"></ellipse>
  <path d="M22.6,7.8c0-.4.3-.8.7-.9.5-.3,1.2-.3,1.7-.3.4,0,1.1.5,1.3,1.4.3,1.7-1,2.8-1.4,3-.2.1-.7.2-1,.2-.4,0-.6-.2-.7-.5-.2-.6-.6-2.2-.5-2.9Z" class="st0"></path>
  <path d="M16.7,15.2c.2-.1.8,0,.9.1.3.3.3.6.4.7,0,0,2,1.5,2.1,1.5,0,0,.3,0,.3-.2.4-.9.8-2.1,1.2-3.2-.2,1-.2,2.6,0,3.5,0,.3.1.7.2,1-.2.2-.3.4-.4.5-.3.4-.7.5-1.1.3-.3-.2-2.5-2.1-2.8-2.6,0,0-.4-.1-.5-.2-.1,0-.6-.3-.6-.4,0,0,0-.2-.2-.3,0-.2.2-.6.5-.7Z" class="st0"></path>
  <polygon points="13.5 38.6 14 34.9 20.9 34.9 21.3 38.6 13.5 38.6" class="st0"></polygon>
  <path d="M26.3,29.6c0,.9.2,6.4.1,7.1,0,.7-.5,1.6-1.5,1.8-.2-.6-1.1-8.9-1.1-9.5,0-.3-.2-1.4-.3-2.8,0,0,1.4-.5,1.8-.6.3-.1.9-.4,1.5-.8-.2,2-.5,4.3-.5,4.8Z" class="st0"></path>
  <path d="M31.9,15.7c-.1.3-1.9,2.9-2.8,3.5-.2.1-.2.5-.4.8-.1.2-.6.3-.9,0-.3-.2-.4-.5-.4-.7,0-.2.3-.5.4-.6,0,0,.5-.3.5-.3,0,0,.3-.3.5-.4.1-.2.5-1.2.6-1.6,0-.2,0-.5-.3-.6-.6-.2-1.2-.5-1.9-.8,0,1.9-.9,3.6,0,6.1.5,1.4-.1,2.5-1.5,3.2-.5.2-1.6.7-2.6,1-1.2.4-2.5.6-3.1.9-.2,0-.4.2-.4.5-.1.9-.4,3.5-.5,4.8,0,.6-.1,1.6-.4,1.9-.4.4-1.1.6-1.3.5,0-1.8-.2-8.4-.2-8.9,0-.4.4-.7.8-.9.8-.4,3-1.4,4.9-2.2h0c.1-2-1-5.4-.7-7.5.3-2,1.8-2.6,2.8-2.6,1,0,1.2,0,1.9.2,1,.3,3.8,2.2,4.6,2.7.4.3.5.5.3,1Z" class="st0"></path>
</svg>