<svg id="Camada_1" xmlns="http://www.w3.org/2000/svg" version="1.1" viewBox="0 0 47.1 48">
  
  <path d="M23.6,0C10.5,0,0,10.7,0,24s10.5,24,23.6,24,23.6-10.7,23.6-24S36.6,0,23.6,0Z" class="circle"></path>
  <g>
    <path class="st0" d="M25.9,31.4c0,.2-1.3,9.4-1.3,9.4,0,0-1.2,0-1.3-1.4,0-.9-.1-7.7-.1-7.9,0-.2,0-.5-.1-.6,0-.2-1.7-4.7-2-5.6-.6-1.4-1.2-2.8-1.6-3.1-.3-.3-4.2-3.4-4.4-3.6-.2-.1-.3-.2-.5-.3-.9-.5-4.4-2.5-5-2.9-.9-.6-.8-1.9-.8-1.9,0,0,4.9,2,6.5,2.7.2,0,.4.2.6.3,1.4.7,5.9,3.2,6.6,3.2,1.1,0,1.9-.2,2.8-.6.4-.1.9-.5,1.5-.8-1.6-.5-7.2-2-7.4-2s-1,.5-1.3.4c-.3,0-.7-.5-.5-.9.1-.4,1.5-.3,1.9-.2.4,0,4.1.4,4.4.5.3,0,3.2.3,4,.5.8.2,2.1,1.2,2.8,1.9.7.8,1,1.7,1,2.2,0,.9-1.3,2.6-2.8,3.3-1.6.6-4.1.6-4.1.6,0,0,1.1,5.9,1.1,6.1,0,.2,0,.5,0,.7Z" fill="white"></path>
    <path class="st0" d="M31.7,24c-.4.8-1.3,2.8-1.6,3.3,0,0-.2.2-.3.2-.4,0-2.6-.5-3-.7-.4-.2-1.1-.5-1.2-.7,0-.1,0-.8.1-.8.4-.2.7-.3.9-.3s.4.3.4.4c0,.2,0,.7,0,.7.2,0,1.3,0,1.8,0,0,0,.1,0,.2-.1,0-.2.1-.6.2-1.1,1.2-.6,2.1-1.7,2.5-2.7.1.8.1,1.5,0,2Z" fill="white"></path>
    <path class="st0" d="M34.4,17.4c-.9,1.3-2.5,1.2-2.9,1-.2,0-.6-.3-.8-.5-.2-.3-.3-.6-.1-.8.2-.5,1.1-1.8,1.6-2.2.3-.2.7-.3,1.1-.2.5.2,1,.6,1.3,1,.2.3.4,1.1,0,1.7Z" fill="white"></path>
  </g>
</svg>