<svg id="Camada_1" xmlns="http://www.w3.org/2000/svg" version="1.1" viewBox="0 0 47.1 48">
  <path d="M23.6,0C10.5,0,0,10.7,0,24s10.5,24,23.6,24,23.6-10.7,23.6-24S36.6,0,23.6,0Z" class="circle"></path>
  <g>
    <path d="M28.2,7.1l.4.2-6.2,10.3c-.1,0-.3,0-.5,0l6.3-10.5Z" fill="white"></path>
    <path d="M12.2,19.6c-.2,0-.8,0-1,0-.3-.1-.6-.3-.6-.7,0-.6,0-2.3.2-2.9.2-.4.5-.7.9-.8.6-.1,1.3,0,1.8.1.4.2,1,.7.9,1.6-.1,1.7-1.6,2.5-2.1,2.6Z" fill="white"></path>
    <path d="M23.8,35.4c-2.1-1.1-7-4.1-7.4-4.4-.5-.4-.4-1,.1-1.5.6-.7,2.2-2.1,3.6-3.4-2.6-1.4-5-1.9-6-4.2-.6-1.3-.6-2.4.5-3.1,1.8-1,6.4-.6,7.7-.4.5,0,.7.2.7.8,0,.3-.1,1.8-.6,3.4-.1.3-.2.6-.3.9-.1.2,0,.5.2.6.3.1.5,0,.6-.2.1-.2.2-.5.3-.7.9.5,2.1,1.7,1.9,2.8-.1.6-.5,1.1-1.1,1.6-.8.7-2.6,1.6-4.1,2.4-.3.1-.4.4-.2.6,1.2,1,2.9,2.3,3.6,3,.3.2.5.5.5,1,0,.4,0,.8-.2.9Z" fill="white"></path>
    <path d="M16.3,27c0-.3.1-.6.2-.8,0-.1.3-.4.5-.7.3.2.7.3,1,.5,0,0,0,.1-.1.2,0,.3,0,.6-.2,1,0,.2-.5.5-.9.4-.4-.1-.6-.4-.6-.6Z" fill="white"></path>
    <path d="M36.4,35.3l-7.7-3.5-4.9-2.8c.3-.2.7-.5,1-.8.6-.5,1-1.1,1.2-1.8.9.8,2.4,2,4.1,3.1,2.3,1.6,4.9,3.2,5.6,3.7,1.4,1.1.6,2,.6,2Z" fill="white"></path>
  </g>
</svg>