<svg xmlns="http://www.w3.org/2000/svg" fill="none" viewBox="0 0 48 48" height="48" width="48">
<circle fill="#161003" r="24" cy="24" cx="24"></circle>
<path fill="white" d="M19.3397 13.7044C19.4133 13.5096 19.534 13.3361 19.691 13.1994C19.848 13.0627 20.0365 12.967 20.2395 12.9209C20.8523 12.8099 21.484 12.876 22.0604 13.1115C22.3687 13.2715 22.6215 13.5208 22.7858 13.8267C22.9502 14.1327 23.0183 14.4812 22.9814 14.8265C22.9104 15.4333 22.6659 16.0067 22.2772 16.478C21.8885 16.9494 21.3722 17.2986 20.79 17.4838C20.4415 17.5618 20.08 17.5618 19.7314 17.4838C19.5725 17.4357 19.4305 17.3435 19.3218 17.2179C19.2131 17.0924 19.1423 16.9387 19.1174 16.7745C19.0181 15.7459 19.0933 14.7079 19.3397 13.7044ZM18.5986 20.7657C17.9846 20.2893 15.0416 17.5897 14.6182 17.1662C14.3887 16.9282 14.2215 16.6373 14.1312 16.3193C14.0147 16.0123 12.268 11.5447 12.215 11.3541C12.045 10.9338 11.9587 10.4842 11.961 10.0308C12.0245 9.59673 12.3315 8.40043 12.5856 8.27339C12.8396 8.14635 12.7761 9.08857 12.7761 9.53321C12.7761 9.97785 13.1784 10.973 13.1784 11.2271C13.1784 11.4812 15.5604 14.7313 15.7509 15.0489C15.9129 15.3201 16.1336 15.5516 16.3967 15.7264C17.4566 16.6192 18.578 17.4364 19.7526 18.1719C19.1157 18.8972 18.7005 19.7901 18.5563 20.7445L18.5986 20.7657ZM26.2103 35.2906C26.2632 36.1375 26.4008 41.2509 26.3585 41.8649C26.3294 42.2516 26.1768 42.6188 25.9234 42.9123C25.6699 43.2058 25.3288 43.4102 24.9505 43.4953C24.7599 42.9765 23.7648 35.2059 23.7225 34.6342C23.6801 34.0625 23.5743 30.8971 23.7225 28.7798C24.2032 29.0455 24.7062 29.2686 25.2257 29.4467C25.7625 29.6389 26.3104 29.7981 26.8666 29.9232C26.5385 31.67 26.1891 34.7718 26.2103 35.2906ZM36.4367 19.5164C36.2992 19.5617 36.1508 19.5617 36.0133 19.5164C35.8333 19.5164 35.2617 19.2094 34.9546 19.6541C34.87 19.7917 34.7747 19.8658 34.7217 19.8446C34.6688 19.8235 34.6688 19.8446 34.7217 19.6752C34.7747 19.5059 34.7853 19.4635 34.8276 19.3576C34.8276 19.093 34.8276 18.8707 34.3618 18.8707C33.6737 18.8707 30.2331 19.3576 29.2909 19.4635C28.3487 19.5694 24.9081 20.1305 23.9977 20.2787C23.9977 20.861 23.9977 21.4009 24.0718 21.7291C24.0635 22.1625 24.1546 22.592 24.3381 22.9848C24.5216 23.3775 24.7927 23.7229 25.1305 23.9946C26.1891 24.5345 26.4114 24.2804 27.4277 24.7992C28.0311 25.0956 28.3381 26.0061 29.2697 26.2602C30.2013 26.5142 32.3292 26.9589 32.9538 27.0224C33.0491 26.1543 33.9278 22.4807 34.4677 20.4798C34.5555 20.4909 34.6445 20.4909 34.7323 20.4798C34.8817 20.4771 35.0282 20.4381 35.1591 20.3662C35.2901 20.2943 35.4016 20.1916 35.484 20.0669L36.0662 20.2363C35.8227 23.01 35.3781 28.0493 35.3358 28.4834C35.3004 28.7466 35.1762 28.9898 34.9836 29.1728C34.7911 29.3557 34.5418 29.4673 34.2771 29.4891C31.2805 29.7648 28.2588 29.4666 25.3739 28.6104C21.5099 27.2235 18.5563 23.2324 19.4985 19.8658C19.5523 19.382 19.7712 18.9315 20.1183 18.5902C20.4653 18.2489 20.9194 18.0377 21.404 17.992C23.5213 17.505 27.65 17.9073 29.0157 17.992C30.2014 17.992 35.0923 17.992 35.5369 18.1084C35.7911 18.1784 36.0101 18.3407 36.1509 18.5636C36.2487 18.7151 36.3337 18.8744 36.405 19.04C36.6485 19.2941 36.5532 19.4635 36.4367 19.5164Z"></path>
</svg>
