<svg viewBox="0 0 47.1 48" version="1.1" xmlns="http://www.w3.org/2000/svg" id="Camada_1">
  
  <defs>
    <style>
      .st0 {
        fill: #fff;
      }

      .st1 {
        fill: #221f1f;
      }
    </style>
  </defs>
  <path d="M23.6,0C10.5,0,0,10.7,0,24s10.5,24,23.6,24,23.6-10.7,23.6-24S36.6,0,23.6,0Z" class="st1"></path>
  <g>
    <path d="M15.9,18.2c.4-.6,5.3-7.6,5.9-8.4,0,0,.9.6.6,1.4-.2.8-3,6.2-3.6,7.3.6.4,2.4,1.4,3.4,1.9-.8.3-1.6.7-2.3,1.1-.4.3-.8.5-1.2.8-1.4-1.2-2.5-2.5-2.6-2.7-.3-.4-.5-1-.1-1.4Z" class="st0"></path>
    <path d="M20,39c-.5.3-1.2.6-1.9.5-.4,0-.8-.2-1.1-.6-.4-.6-.8-2.4-.8-3.1,0-.4.2-.6.5-.9.3-.2.8-.3,1.1-.3.5,0,2.3.5,2.8,2.3.3,1-.2,1.7-.6,2Z" class="st0"></path>
    <path d="M33.9,30c0,.2-.1.4-.2.6,0,0,0,0,0,0,0,0,0,0,0,0-.1.3-.3.4-.6.6-.4.2-5.5,1.1-6.8,1.4-1.4.3-5.2,1.4-7.6,1.4-1.5,0-2.2-.2-2.7-1.6-1.4-3.9,0-7.2,3.2-9.5.9-.6,1.9-1.1,2.9-1.6v5c-.3.1-.6.3-1.1.7-.7.5-.8,1.6-.7,2.6,0,.3.1.9.2,1.5,1,0,4.6-.1,5.7-.2,1,0,4.7-.2,5.4-.4.4,0,.5-.2.4-.6,0-.4,0-.5.2-.7.1,0,.1-.2,0-.3,0-.1-.2-.1-.3,0-.2,0-.3.2-.3.3-.9-1.9-2.7-5.9-3-6.8-.4.1-1.6.6-2.5,1v.9c.1,0-3,2.1-3,2.1V3.8h.6l2,16.5c2-.5,3.6-.7,3.9-.7.5,0,1.1.3,1.2.8.2.7,1.8,6.6,2.6,9.2.3-.1.6,0,.5.5Z" class="st0"></path>
  </g>
</svg>