<svg viewBox="0 0 47.1 48" version="1.1" xmlns="http://www.w3.org/2000/svg" id="Camada_1">
  
  <defs>
    <style>
      .st0 {
        fill: #fff;
      }

      .st1 {
        fill: #221f1f;
      }
    </style>
  </defs>
  <path d="M23.6,0C10.5,0,0,10.7,0,24s10.5,24,23.6,24,23.6-10.7,23.6-24S36.6,0,23.6,0Z" class="st1"></path>
  <path d="M35.7,34c-.4-.4-.8-.7-1.3-1.1l-11.5-17.5c-.2-.6-.4-1.2-.6-1.8l13.4,20.4Z" class="st0"></path>
  <path d="M15,15.6c0-.4.3-.7.7-.9.5-.2,1.2-.3,1.7-.2.4,0,1.1.5,1.2,1.4.2,1.6-1.1,2.7-1.5,2.9-.2,0-.7.2-1,.2-.3,0-.6-.2-.7-.5-.2-.6-.5-2.2-.4-2.8Z" class="st0"></path>
  <path d="M17.4,24.9c.1.2.6,1,1.1,1.6-.4.1-.9.3-1.4.4-.6-.5-.9-.8-1.6-1.5-.1-.1-.2-.2-.2-.4,0-.6.8-2.9.9-3.3,0-.2.2-.6.5-.9,0,1.2.4,2.6.9,3.4-.1.1-.3.2-.3.3,0,.1,0,.2,0,.4Z" class="st0"></path>
  <path d="M35.9,37.3c-.5-.3-5.8-3.8-5.8-3.8,0,0-5.1-3.3-5.5-3.4-.4-.1-1.9,0-2.3.2-1.3.4-5.1,1-6,1.1-.2,0-.3.2-.4.4-.5,1.4-1.8,4.4-2.2,5.1-.4.9-2.2.9-2.2.9,0,0,2.5-8.1,2.6-8.5.1-.4.4-.5.6-.6.2,0,3.8-1.2,5.8-1.8,0,0-1.5-2.1-2.1-3.1-.6-1-1.3-3.1-1-3.8.1-.4,1.7-1.9,2.3-2.5.2-.2.2-.6.2-.6,0,0-.6-4.4-.7-4.6,0-.1-1-2.7-1.2-3.2-.2-.5-.3-1.2-.3-1.2,0,0,0,0-.1,0,0,0,0,0,0,.1v.2c0,0-.3-.1-.3-.2,0-.1-.2-.5-.2-.6s0-.3.1-.4c0,0,.1,0,.2,0,0,0,0,0,.1,0,.3-.1.9-.3,1.2-.2.2,0,.3.7.3.8,0,.1,0,.5,0,.7.5,1,1.6,3,1.6,3.2,0,.3,1.9,5.2,2.3,6.3.4,1.1,1.1,4.6,2.5,7,.3.6,5,5.8,6.1,6.8.8.7,6.6,5.8,6.6,5.8,0,0-.8.9-2.3,0Z" class="st0"></path>
</svg>