<svg viewBox="0 0 47.1 48" version="1.1" xmlns="http://www.w3.org/2000/svg" id="Camada_1">
  
  <defs>
    <style>
      .st0 {
        fill: #fff;
      }

      .st1 {
        fill: #221f1f;
      }
    </style>
  </defs>
  <path d="M23.6,0C10.5,0,0,10.7,0,24s10.5,24,23.6,24,23.6-10.7,23.6-24S36.6,0,23.6,0Z" class="st1"></path>
  <g>
    <path d="M22.4,8.5c0-.4.3-.7.6-.9.5-.2,1.2-.3,1.6-.2.4,0,1.1.5,1.2,1.3.3,1.6-1,2.6-1.3,2.8-.2.1-.7.2-.9.2-.3,0-.6-.2-.7-.5-.2-.5-.6-2.1-.5-2.7Z" class="st0"></path>
    <path d="M13.8,7c0,0,0-.1-.1-.4,0-.2.3-.5.6-.6.2,0,.7.1.8.3.2.3.2.7.3.8.2.1,2.6,1.7,3.3,2.2,1,.6,3.2,2,4.7,2.9-.9.4-1.8,1.1-1.9,2.2h0c-.7-.7-3-3.1-3.8-3.8-.7-.6-2.8-2.7-3-2.9-.2-.2-.3-.1-.8-.7Z" class="st0"></path>
    <polygon points="21 42.5 21.4 38.6 29.2 38.6 29.6 42.5 21 42.5" class="st0"></polygon>
    <path d="M25.8,29c0,.9.7,6.2.7,6.8,0,.6-.5,1.6-1.4,1.7-.2-.5-1.5-8.5-1.6-9.1,0-.4-.3-2.2-.4-4.1.5.1,1.1.2,1.6.2s1.1-.2,1.6-.4c-.2,1.9-.6,4.4-.5,4.9Z" class="st0"></path>
    <path d="M31.3,15.9c-.3.6-1.9,2.5-2.5,3.2-.2.2-.1.4-.5.9-.1.2-.6.3-.8,0-.3-.2-.4-.5-.3-.7,0-.2.3-.5.4-.6,0,0,.4-.3.5-.3,0,0,.3-.2.4-.4.3-.7.5-1.1.6-1.5,0-.2,0-.5-.3-.6-.6-.2-1.2-.5-1.9-.8,0,1.9-.9,3.5,0,5.8,0,.2.4,1-.2,1.8-.6.8-1.9,1.3-4,.6-1-.3-2.1-.7-2.4-.8-.2,0-.3,0-.2.2.3,1.8.5,4.3.6,5.2,0,.5-.1,1.6-1.2,1.9-.5-1.9-2.1-8.7-2.1-9.1,0-.5.4-.8,1.2-.7.8,0,2.7.2,4.3.4.1-1.9-.9-3.8-.6-5.7.3-1.9,1.6-2.4,2.6-2.4,1.8,0,5.2,2.1,6.2,2.8.4.2.5.5.3.9Z" class="st0"></path>
  </g>
</svg>