<svg viewBox="0 0 47.1 48" version="1.1" xmlns="http://www.w3.org/2000/svg" id="Camada_1">
  
  <defs>
    <style>
      .st0 {
        fill: #fff;
      }

      .st1 {
        fill: #221f1f;
      }
    </style>
  </defs>
  <path d="M23.6,0C10.5,0,0,10.7,0,24s10.5,24,23.6,24,23.6-10.7,23.6-24S36.6,0,23.6,0Z" class="st1"></path>
  <g>
    <path d="M18.9,14.9c0-.5.3-.8.7-1,.6-.3,1.4-.3,1.9-.2.5,0,1.2.6,1.3,1.5.3,1.8-1.2,3-1.6,3.2-.2.1-.8.2-1.1.2-.4,0-.7-.2-.8-.6-.2-.6-.6-2.4-.5-3.1Z" class="st0"></path>
    <path d="M14.6,24.5c.1-.2.4-.3.7-.2l1.9,1.1c1.2-.8,3.3-2.5,3.4-2.6.1-.1.2-.2.3-.5.5-1.1,2-4.9,2.7-5.6.6-.7,1.3-1.2,2.2-.8,4.5,2.3,6.7,4.7,7.5,6.6.5,1,.5,2,0,2.8h.5c.4,0,.7.3.7.7,0,.4-.3.7-.7.7h-2.2s0,0,0,0c-1.2.6-4.3,1.8-4.5,1.9-.2.1-.3.3,0,.6.4.5.9,1.1,1.4,1.7-1.2-.4-2.4-.8-3.7-1.3-.3-.1-.6-.2-.9-.3,0,0,0,0,0-.1-.4-.5-.5-.9,0-1.4.6-.7,5-3.5,6.5-4.5.1,0,.2-.4,0-.6-.2-.3-.6-.1-.9,0-.2.2-.5.3-.8.5-1.4-.4-3-1-4.1-2-.8,1.1-1.9,2.3-2.3,2.8-.1.2-.3.3-.5.4,0,0-1.6.8-2.8,1.4-.3.1-.5.1-.7,0l.5.3c.2.1.3.4.2.7-.1.2-.4.3-.7.2l-3.4-2c-.2-.1-.3-.4-.2-.7Z" class="st0"></path>
    <path d="M29.7,37.1c-6.3-.9-13.3-9.8-21.1-5.2,10.3-10.1,25,8.6,28.2-2.3,2.5,3.6-.8,8.3-7.1,7.4Z" class="st0"></path>
  </g>
</svg>