<svg viewBox="0 0 47.1 48" version="1.1" xmlns="http://www.w3.org/2000/svg" id="Camada_1">
  
  <defs>
    <style>
      .st0 {
        fill: #fff;
      }

      .st1 {
        fill: #221f1f;
      }
    </style>
  </defs>
  <path d="M23.6,0C10.5,0,0,10.7,0,24s10.5,24,23.6,24,23.6-10.7,23.6-24S36.6,0,23.6,0Z" class="st1"></path>
  <path d="M9.3,19c.6,0,8.8,1.5,9.4,1.6.4,0,2.5.6,4.5,1.1,0,.3,0,.5,0,.8,0,.9-.1,2,0,2.9-1.7-.8-5.2-2.6-5.8-2.8-.9-.2-6.2-1.5-6.8-1.7-.6-.2-1.3-1-1.2-2Z" class="st0"></path>
  <path d="M12.7,33.4c-3.3,0-5.9-2.6-5.9-5.9s1.7-4.8,4-5.6c.8.2,5.9,1.4,6.2,1.5,1,1.1,1.6,2.5,1.6,4.1,0,3.3-2.6,5.9-5.9,5.9Z" class="st0"></path>
  <path d="M34.6,32.2c-.5.8-1.9,1.1-3.3,1.1-2,0-7.8,0-8.3,0s-2.2,0-2.4,0c-.2,0-.2-.4.3-.5.4,0,2-.3,2.7-.4.6,0,2.6-.5,3.1-.6.4,0,2.5-.5,3.5-.7-.4-.5-.7-1-1-1.5-.3-.5-1.1-1.4-2.4-1.8-1.6-.5-2.2-1-2.5-1.3-.6-.7-.5-2.6-.4-3.9,0-1.3.4-7,.4-7,0,0,.4-7.2.5-8.1.2-1.5,1.3-1.5,1.3-1.5l.7,9.5.6,7.5c0,.4,0,.8,0,1.1,0,.2.2.5.4.5h0c.2,0,.4-.2.4-.4,0-.2,0-.4,0-.6,2.8,1.4,5.8,4,6.4,5.9.3,1.1.3,1.9-.2,2.7Z" class="st0"></path>
  <path d="M38.7,33.2c-1.8,0-2.7-1.7-2.9-2.2,0-.3-.1-.9,0-1.2.1-.4.3-.7.6-.8.6-.2,2.4-.3,3,0,.4.1.7.5.9.9.2.6.2,1.5,0,2.1-.1.5-.7,1.2-1.6,1.2Z" class="st0"></path>
</svg>