<svg viewBox="0 0 47.1 48" version="1.1" xmlns="http://www.w3.org/2000/svg" id="Camada_1">
  
  <defs>
    <style>
      .st0 {
        fill: #fff;
      }

      .st1 {
        fill: #221f1f;
      }
    </style>
  </defs>
  <path d="M23.6,0C10.5,0,0,10.7,0,24s10.5,24,23.6,24,23.6-10.7,23.6-24S36.6,0,23.6,0Z" class="st1"></path>
  <path d="M20.6,11.4c.1-.9.9-1.4,1.3-1.5.5,0,1.3,0,1.8.2.4.2.6.5.7,1,.1.7-.2,2.4-.5,3.1-.1.3-.4.5-.8.6-.3,0-.8,0-1.1-.2-.4-.2-1.8-1.4-1.6-3.1Z" class="st0"></path>
  <path d="M36.9,16.4c-.3,0-.9,0-1.2,0-.7.1-4.4.8-4.8.8-.3,0-4.4,1.1-5.3,1.4,0,1.6-.2,3.8,0,4.9.1.4,1.2,2.5,1.3,4.1,0,1.3,0,4.1,0,5.2,0,.2.1.3.3.4,1.8,1.1,4,2.7,4.5,3.2.6.6.6,1.5.6,1.5-2.2-.7-6.1-2.1-7.4-2.5-.1,0-.3-.1-.4-.3-1-2-1.2-5-1.2-6.2,0-.7,0-1.3,0-1.4,0-.3-.2-.5-.5-.5-.3,0-.5.2-.5.5,0,.1,0,1.2,0,1.7-1.2.3-3.4.7-5.2.9-.4,0-.4.3-.3.8.1,1.2.2,3.5.3,5.7,0,.8-.5,1.7-1.4,1.9-.3-1.1-2.2-8.9-2.3-9.5,0-.3,0-.7.4-.9.6-.3,3.6-1.4,6.5-1.9.2,0,.3-.2.2-.9-.5-2.4-1.2-4-1.3-5.4,0-.3,0-.7,0-1.3,0-.3-.2-.5-.4-.5-.3,0-.5.2-.5.4,0,.2,0,.4,0,.6-1.8-.1-3.9-.3-4.2-.4-.5-.2-.6-1.4.4-1.9,1-.4,5.7-1.5,8.1-1.5,1.8,0,8.2.1,8.4.1,2.1,0,3.5,0,4,0,.9-.1.8-.5,1.3-.5.9,0,1.9.3,1.9.7,0,.5-1.2.7-1.6.7Z" class="st0"></path>
</svg>