<svg width="127" height="40" viewBox="0 0 127 40" fill="none" xmlns="http://www.w3.org/2000/svg">
<g clip-path="url(#clip0_6916_5836)">
<path d="M115.931 -1.0526H10.0365C9.65051 -1.0526 9.26914 -1.0526 8.88416 -1.05049C8.5619 -1.04839 8.2422 -1.04227 7.91684 -1.03712C7.21001 -1.02881 6.50485 -0.966623 5.80747 -0.851113C5.11108 -0.73309 4.4365 -0.510581 3.80655 -0.191113C3.17737 0.131057 2.60247 0.549684 2.10271 1.04958C1.60032 1.54807 1.18154 2.12426 0.862474 2.75599C0.542527 3.38646 0.320674 4.06207 0.204579 4.75949C0.0873799 5.45602 0.0243141 6.16058 0.0159474 6.86686C0.00617895 7.18959 0.00514737 7.5134 0 7.83618V32.167C0.00514737 32.4938 0.00617895 32.8105 0.0159474 33.1374C0.0243167 33.8436 0.0873825 34.5482 0.204579 35.2447C0.320354 35.9425 0.542219 36.6185 0.862474 37.2492C1.1814 37.8789 1.60023 38.4527 2.10271 38.9485C2.60057 39.4506 3.17584 39.8695 3.80655 40.1892C4.43649 40.5095 5.111 40.7333 5.80747 40.8532C6.50497 40.9678 7.21006 41.03 7.91684 41.0393C8.2422 41.0465 8.5619 41.0506 8.88416 41.0506C9.26913 41.0527 9.65053 41.0527 10.0365 41.0527H115.931C116.31 41.0527 116.694 41.0527 117.072 41.0506C117.393 41.0506 117.722 41.0465 118.043 41.0393C118.748 41.0305 119.452 40.9683 120.148 40.8532C120.847 40.7325 121.524 40.5087 122.157 40.1892C122.787 39.8693 123.362 39.4504 123.859 38.9485C124.36 38.4508 124.78 37.8774 125.103 37.2492C125.421 36.618 125.64 35.9421 125.754 35.2447C125.872 34.5481 125.937 33.8437 125.95 33.1374C125.954 32.8105 125.954 32.4938 125.954 32.167C125.962 31.7846 125.962 31.4042 125.962 31.0156V8.98543C125.962 8.59995 125.962 8.21755 125.954 7.83618C125.954 7.5134 125.954 7.18959 125.95 6.86681C125.937 6.16048 125.872 5.45607 125.754 4.75945C125.64 4.06244 125.42 3.38688 125.103 2.75595C124.453 1.48971 123.423 0.459008 122.157 -0.191208C121.524 -0.509895 120.847 -0.732344 120.148 -0.851208C119.452 -0.967226 118.748 -1.02943 118.043 -1.03727C117.722 -1.04241 117.393 -1.04858 117.072 -1.05063C116.694 -1.05273 116.31 -1.0526 115.931 -1.0526Z" fill="#161003"/>
<path d="M8.89026 40.1313C8.56954 40.1313 8.25657 40.1272 7.93837 40.1201C7.2792 40.1115 6.62156 40.0541 5.97086 39.9484C5.36411 39.8439 4.77634 39.6495 4.22692 39.3716C3.68254 39.0961 3.18603 38.7348 2.7564 38.3015C2.32054 37.8734 1.95768 37.3768 1.68217 36.8315C1.40364 36.2827 1.21087 35.6944 1.1106 35.0871C1.00231 34.4346 0.943716 33.7748 0.935332 33.1134C0.928659 32.8914 0.919922 32.1523 0.919922 32.1523V7.83589C0.919922 7.83589 0.929227 7.10809 0.935385 6.89427C0.943412 6.23393 1.00166 5.57517 1.10963 4.92367C1.21009 4.31474 1.403 3.72474 1.68169 3.17409C1.95618 2.62916 2.31703 2.13223 2.75026 1.70256C3.183 1.26882 3.6811 0.905642 4.22641 0.62628C4.77456 0.349315 5.36122 0.156304 5.96674 0.0537114C6.61958 -0.053061 7.2795 -0.110787 7.94096 -0.118983L8.89077 -0.131836H117.068L118.029 -0.118467C118.685 -0.110679 119.339 -0.0534675 119.986 0.0526799C120.597 0.156559 121.19 0.350917 121.744 0.629364C122.837 1.19236 123.726 2.08307 124.287 3.17666C124.561 3.72351 124.751 4.3087 124.85 4.91236C124.959 5.56921 125.02 6.23315 125.033 6.8989C125.036 7.19701 125.036 7.51722 125.036 7.83589C125.044 8.23063 125.044 8.60634 125.044 8.98514V31.0153C125.044 31.3977 125.044 31.7709 125.036 32.1471C125.036 32.4894 125.036 32.803 125.032 33.1257C125.02 33.7796 124.959 34.4317 124.852 35.0768C124.754 35.6884 124.562 36.2813 124.283 36.8347C124.006 37.3741 123.645 37.8663 123.214 38.2933C122.784 38.7289 122.287 39.0923 121.741 39.3696C121.188 39.6496 120.597 39.8447 119.986 39.9484C119.335 40.0546 118.677 40.112 118.018 40.1201C117.71 40.1272 117.387 40.1313 117.073 40.1313L115.932 40.1334L8.89026 40.1313Z" fill="#FFF4A6"/>
<path d="M26.3128 19.8825C26.3245 18.9689 26.5672 18.073 27.0182 17.2784C27.4693 16.4837 28.1139 15.8161 28.8923 15.3375C28.3978 14.6313 27.7455 14.0501 26.9871 13.6402C26.2287 13.2302 25.3852 13.0026 24.5235 12.9757C22.6853 12.7827 20.9034 14.0756 19.9667 14.0756C19.0118 14.0756 17.5697 12.9948 16.0167 13.0268C15.0122 13.0592 14.0332 13.3514 13.1751 13.8746C12.3171 14.3979 11.6092 15.1346 11.1205 16.0128C9.00355 19.6781 10.5826 25.0648 12.6105 28.0275C13.6251 29.4783 14.8109 31.0988 16.3625 31.0414C17.8808 30.9784 18.4479 30.0732 20.2806 30.0732C22.0963 30.0732 22.6283 31.0414 24.2114 31.0048C25.8406 30.9784 26.8671 29.5476 27.8461 28.0831C28.5751 27.0494 29.1361 25.9069 29.5083 24.698C28.5617 24.2976 27.754 23.6275 27.1857 22.7712C26.6175 21.9149 26.3139 20.9102 26.3128 19.8825Z" fill="#161003"/>
<path d="M23.3233 11.028C24.2116 9.96157 24.6493 8.5909 24.5433 7.20703C23.1861 7.34957 21.9325 7.9982 21.0322 9.02368C20.592 9.52466 20.2548 10.1075 20.04 10.7388C19.8252 11.3702 19.7369 12.0377 19.7802 12.7032C20.4591 12.7101 21.1306 12.563 21.7443 12.2728C22.358 11.9827 22.8979 11.557 23.3233 11.028Z" fill="#161003"/>
<path d="M44.5278 27.516H39.5452L38.3487 31.0491H36.2383L40.9576 17.9775H43.1503L47.8697 31.0491H45.7233L44.5278 27.516ZM40.0613 25.8857H44.0107L42.0638 20.1517H42.0092L40.0613 25.8857Z" fill="#161003"/>
<path d="M58.0612 26.2841C58.0612 29.2457 56.4761 31.1484 54.084 31.1484C53.4781 31.1801 52.8754 31.0405 52.3451 30.7456C51.8148 30.4508 51.3783 30.0125 51.0855 29.481H51.0402V34.2014H49.084V21.5185H50.9775V23.1036H51.0135C51.3197 22.5747 51.7637 22.1387 52.298 21.842C52.8324 21.5453 53.4371 21.399 54.048 21.4187C56.4668 21.4188 58.0612 23.3308 58.0612 26.2841ZM56.0505 26.2841C56.0505 24.3546 55.0534 23.0861 53.532 23.0861C52.0373 23.0861 51.032 24.3813 51.032 26.2841C51.032 28.2043 52.0373 29.4903 53.532 29.4903C55.0534 29.4903 56.0505 28.2311 56.0505 26.2841Z" fill="#161003"/>
<path d="M68.55 26.2841C68.55 29.2457 66.9644 31.1484 64.5723 31.1484C63.9663 31.1801 63.3637 31.0405 62.8334 30.7456C62.3031 30.4508 61.8665 30.0125 61.5737 29.481H61.5285V34.2014H59.5723V21.5185H61.4658V23.1036H61.5017C61.808 22.5747 62.2519 22.1387 62.7863 21.842C63.3206 21.5453 63.9254 21.399 64.5363 21.4187C66.9551 21.4188 68.55 23.3308 68.55 26.2841ZM66.5388 26.2841C66.5388 24.3546 65.5417 23.0861 64.0203 23.0861C62.5256 23.0861 61.5203 24.3813 61.5203 26.2841C61.5203 28.2043 62.5256 29.4903 64.0203 29.4903C65.5417 29.4903 66.5388 28.2311 66.5388 26.2841Z" fill="#161003"/>
<path d="M75.483 27.4072C75.6279 28.7035 76.8872 29.5546 78.608 29.5546C80.2568 29.5546 81.4431 28.7035 81.4431 27.5347C81.4431 26.5201 80.7276 25.9125 79.0336 25.4962L77.3395 25.0881C74.9392 24.5083 73.8249 23.3858 73.8249 21.5642C73.8249 19.3089 75.7904 17.7598 78.5802 17.7598C81.3434 17.7598 83.2369 19.3089 83.3006 21.5642H81.3259C81.2077 20.2598 80.1294 19.4724 78.5535 19.4724C76.9776 19.4724 75.8993 20.269 75.8993 21.4286C75.8993 22.3527 76.588 22.8965 78.2729 23.3128L79.713 23.6664C82.395 24.3006 83.5083 25.378 83.5083 27.29C83.5083 29.7355 81.5613 31.2671 78.463 31.2671C75.5641 31.2671 73.6069 29.7714 73.4805 27.4071L75.483 27.4072Z" fill="#161003"/>
<path d="M87.732 19.2637V21.519H89.5443V23.0682H87.732V28.3221C87.732 29.1383 88.0949 29.5186 88.8915 29.5186C89.1067 29.5149 89.3215 29.4997 89.535 29.4733V31.0132C89.1769 31.0802 88.8128 31.1105 88.4485 31.1037C86.519 31.1037 85.7665 30.379 85.7665 28.5307V23.0682H84.3809V21.519H85.7665V19.2637H87.732Z" fill="#161003"/>
<path d="M90.5918 26.2842C90.5918 23.2856 92.3578 21.4014 95.1117 21.4014C97.8749 21.4014 99.6327 23.2856 99.6327 26.2842C99.6327 29.291 97.8841 31.167 95.1117 31.167C92.3403 31.167 90.5918 29.291 90.5918 26.2842ZM97.6395 26.2842C97.6395 24.2272 96.6968 23.0132 95.1117 23.0132C93.5266 23.0132 92.584 24.2365 92.584 26.2842C92.584 28.3493 93.5266 29.5541 95.1117 29.5541C96.6968 29.5541 97.6395 28.3493 97.6395 26.2842Z" fill="#161003"/>
<path d="M101.246 21.5184H103.112V23.1405H103.157C103.283 22.6339 103.58 22.1861 103.998 21.8726C104.415 21.559 104.928 21.3987 105.449 21.4186C105.675 21.4179 105.9 21.4423 106.12 21.4916V23.3214C105.835 23.2344 105.538 23.1945 105.241 23.2032C104.957 23.1917 104.673 23.2418 104.41 23.3501C104.147 23.4584 103.911 23.6223 103.717 23.8306C103.524 24.0389 103.377 24.2867 103.288 24.5568C103.199 24.827 103.17 25.1132 103.202 25.3958V31.0486H101.246L101.246 21.5184Z" fill="#161003"/>
<path d="M115.14 28.2496C114.877 29.9797 113.192 31.167 111.036 31.167C108.264 31.167 106.543 29.3095 106.543 26.3294C106.543 23.3401 108.273 21.4014 110.954 21.4014C113.591 21.4014 115.249 23.2126 115.249 26.1022V26.7725H108.518V26.8907C108.487 27.2414 108.531 27.5947 108.647 27.9272C108.762 28.2597 108.948 28.5637 109.19 28.819C109.433 29.0743 109.727 29.2751 110.053 29.408C110.379 29.541 110.73 29.603 111.081 29.5901C111.544 29.6334 112.008 29.5263 112.404 29.2848C112.801 29.0433 113.109 28.6802 113.282 28.2496L115.14 28.2496ZM108.527 25.4053H113.292C113.309 25.0899 113.261 24.7743 113.151 24.4783C113.041 24.1823 112.871 23.9123 112.651 23.6851C112.432 23.458 112.168 23.2787 111.876 23.1585C111.584 23.0383 111.27 22.9797 110.954 22.9865C110.635 22.9846 110.32 23.0458 110.025 23.1666C109.73 23.2873 109.462 23.4653 109.236 23.6902C109.011 23.9151 108.832 24.1824 108.71 24.4768C108.588 24.7711 108.526 25.0867 108.527 25.4053Z" fill="#161003"/>
<path d="M39.8195 8.13896C40.2296 8.10953 40.6411 8.17149 41.0244 8.32037C41.4077 8.46924 41.7532 8.70133 42.0359 8.99988C42.3186 9.29843 42.5315 9.65601 42.6593 10.0468C42.7871 10.4376 42.8266 10.8519 42.7749 11.2598C42.7749 13.2664 41.6904 14.4198 39.8195 14.4198H37.5508V8.13896H39.8195ZM38.5263 13.5316H39.7105C40.0036 13.5491 40.2969 13.5011 40.569 13.3909C40.8411 13.2808 41.0853 13.1114 41.2837 12.895C41.4821 12.6786 41.6298 12.4207 41.716 12.1401C41.8021 11.8594 41.8247 11.5631 41.7819 11.2726C41.8215 10.9833 41.7968 10.6889 41.7093 10.4103C41.6218 10.1317 41.4737 9.87587 41.2758 9.66121C41.0778 9.44655 40.8348 9.27833 40.5642 9.1686C40.2936 9.05888 40.0021 9.01037 39.7105 9.02655H38.5263V13.5316Z" fill="#161003"/>
<path d="M48.1191 13.1406C47.992 13.5738 47.7166 13.9485 47.3412 14.1992C46.9657 14.4498 46.5141 14.5605 46.0652 14.5119C45.753 14.5201 45.4426 14.4603 45.1558 14.3366C44.8689 14.2129 44.6125 14.0282 44.4041 13.7954C44.1958 13.5626 44.0406 13.2873 43.9494 12.9886C43.8581 12.6898 43.833 12.3748 43.8757 12.0653C43.8341 11.7549 43.8597 11.4392 43.9507 11.1395C44.0418 10.8399 44.1961 10.5633 44.4034 10.3285C44.6106 10.0936 44.8658 9.9061 45.1519 9.77851C45.4379 9.65092 45.748 9.58628 46.0611 9.58895C47.38 9.58895 48.1756 10.49 48.1756 11.9784V12.3048H44.8287V12.3573C44.814 12.5312 44.8359 12.7063 44.8928 12.8713C44.9498 13.0363 45.0406 13.1876 45.1595 13.3154C45.2783 13.4433 45.4226 13.5449 45.583 13.6137C45.7434 13.6825 45.9164 13.7171 46.091 13.7152C46.3148 13.742 46.5415 13.7017 46.7423 13.5994C46.9431 13.4971 47.1089 13.3374 47.2187 13.1405L48.1191 13.1406ZM44.8286 11.613H47.2227C47.2345 11.4539 47.2129 11.2941 47.1592 11.1439C47.1056 10.9937 47.0211 10.8563 46.9112 10.7407C46.8014 10.6251 46.6685 10.5337 46.5212 10.4724C46.3739 10.4112 46.2154 10.3815 46.056 10.3851C45.8942 10.3831 45.7336 10.4135 45.5838 10.4745C45.4339 10.5355 45.2978 10.6258 45.1834 10.7403C45.069 10.8547 44.9787 10.9909 44.9178 11.1408C44.8569 11.2907 44.8265 11.4512 44.8286 11.613Z" fill="#161003"/>
<path d="M51.1646 9.58887C52.2306 9.58887 52.9275 10.0849 53.019 10.9206H52.1216C52.0353 10.5726 51.695 10.3506 51.1646 10.3506C50.6424 10.3506 50.2456 10.5983 50.2456 10.9684C50.2456 11.2516 50.4851 11.43 50.9991 11.5476L51.7865 11.7301C52.688 11.9393 53.1105 12.3268 53.1105 13.0233C53.1105 13.9156 52.2789 14.5118 51.1471 14.5118C50.0194 14.5118 49.2844 14.0024 49.2012 13.1626H50.1376C50.2183 13.3625 50.3639 13.5294 50.5508 13.6367C50.7378 13.744 50.9554 13.7854 51.1687 13.7542C51.7515 13.7542 52.1658 13.4931 52.1658 13.1142C52.1658 12.8316 51.9438 12.6486 51.4689 12.5355L50.6424 12.3438C49.7408 12.1305 49.3235 11.726 49.3235 11.0208C49.3235 10.1805 50.0934 9.58887 51.1646 9.58887Z" fill="#161003"/>
<path d="M57.475 11.2286C57.4153 10.9828 57.2697 10.7665 57.0643 10.6188C56.8589 10.4712 56.6075 10.4019 56.3555 10.4237C55.5722 10.4237 55.0932 11.024 55.0932 12.034C55.0932 13.0614 55.5764 13.6751 56.3555 13.6751C56.605 13.704 56.8565 13.6408 57.0627 13.4973C57.2688 13.3538 57.4154 13.1399 57.475 12.8959H58.3847C58.3246 13.3759 58.0793 13.8134 57.7012 14.115C57.323 14.4167 56.842 14.5588 56.3607 14.5108C56.0437 14.5209 55.7284 14.4615 55.4368 14.3369C55.1452 14.2124 54.8844 14.0256 54.6725 13.7897C54.4606 13.5538 54.3028 13.2744 54.2102 12.9711C54.1176 12.6679 54.0923 12.348 54.1362 12.034C54.0945 11.7223 54.1214 11.4052 54.2149 11.1049C54.3085 10.8047 54.4664 10.5284 54.6777 10.2955C54.8891 10.0626 55.1487 9.87862 55.4385 9.75641C55.7283 9.6342 56.0412 9.57672 56.3555 9.58797C56.8408 9.54327 57.3244 9.6897 57.7034 9.9961C58.0824 10.3025 58.3268 10.7447 58.3847 11.2286L57.475 11.2286Z" fill="#161003"/>
<path d="M59.3125 13.0798C59.3125 12.2266 59.9478 11.7347 61.0754 11.6648L62.3594 11.5908V11.1817C62.3594 10.6811 62.0284 10.3984 61.389 10.3984C60.8668 10.3984 60.5049 10.5901 60.4011 10.9252H59.4955C59.5911 10.1111 60.3569 9.58887 61.4322 9.58887C62.6205 9.58887 63.2907 10.1804 63.2907 11.1817V14.4203H62.3902V13.7542H62.3162C62.166 13.9931 61.955 14.1879 61.7049 14.3186C61.4548 14.4494 61.1744 14.5114 60.8925 14.4984C60.6935 14.5191 60.4924 14.4978 60.3021 14.4361C60.1118 14.3743 59.9366 14.2733 59.7878 14.1396C59.6389 14.006 59.5197 13.8426 59.4378 13.6601C59.356 13.4775 59.3133 13.2799 59.3125 13.0798ZM62.3594 12.6748V12.2785L61.2019 12.3525C60.5491 12.3962 60.2531 12.6183 60.2531 13.0361C60.2531 13.4627 60.6231 13.711 61.132 13.711C61.2811 13.7261 61.4317 13.711 61.5749 13.6667C61.7181 13.6224 61.8509 13.5497 61.9654 13.4531C62.0799 13.3564 62.1738 13.2377 62.2415 13.104C62.3091 12.9703 62.3492 12.8243 62.3594 12.6748Z" fill="#161003"/>
<path d="M64.7559 9.68018H65.6564V10.407H65.7263C65.8271 10.1547 66.0052 9.94081 66.2352 9.7961C66.4651 9.65139 66.735 9.58328 67.0061 9.60154C67.1462 9.59966 67.2861 9.61275 67.4234 9.6406V10.5638C67.2517 10.5271 67.0768 10.5081 66.9012 10.5072C66.7469 10.4934 66.5915 10.5119 66.4448 10.5618C66.2981 10.6116 66.1634 10.6915 66.0495 10.7964C65.9356 10.9014 65.8448 11.029 65.7831 11.1711C65.7215 11.3132 65.6902 11.4666 65.6913 11.6215V14.4202H64.7559L64.7559 9.68018Z" fill="#161003"/>
<path d="M68.5274 9.68018H69.4279V10.407H69.4977C69.5985 10.1547 69.7767 9.94081 70.0067 9.7961C70.2366 9.65139 70.5065 9.58328 70.7775 9.60154C70.9177 9.59966 71.0576 9.61275 71.1949 9.6406V10.5638C71.0232 10.5271 70.8482 10.5081 70.6727 10.5072C70.5184 10.4934 70.3629 10.5119 70.2162 10.5618C70.0696 10.6116 69.9349 10.6915 69.821 10.7964C69.707 10.9014 69.6163 11.029 69.5546 11.1711C69.4929 11.3132 69.4617 11.4666 69.4628 11.6215V14.4202H68.5273L68.5274 9.68018Z" fill="#161003"/>
<path d="M76.1152 13.1405C75.9881 13.5737 75.7127 13.9485 75.3373 14.1991C74.9618 14.4498 74.5102 14.5605 74.0613 14.5119C73.7491 14.5201 73.4387 14.4603 73.1519 14.3366C72.865 14.2129 72.6086 14.0282 72.4002 13.7954C72.1919 13.5626 72.0367 13.2873 71.9455 12.9886C71.8542 12.6898 71.8291 12.3748 71.8718 12.0653C71.8302 11.7549 71.8558 11.4392 71.9468 11.1395C72.0379 10.8399 72.1922 10.5633 72.3995 10.3285C72.6067 10.0936 72.8619 9.9061 73.148 9.77851C73.434 9.65092 73.7441 9.58628 74.0572 9.58895C75.3761 9.58895 76.1717 10.49 76.1717 11.9784V12.3048H72.8247V12.3573C72.81 12.5312 72.8319 12.7063 72.8889 12.8713C72.9458 13.0363 73.0367 13.1876 73.1555 13.3154C73.2744 13.4432 73.4186 13.5448 73.579 13.6137C73.7394 13.6825 73.9125 13.7171 74.087 13.7151C74.3108 13.742 74.5375 13.7017 74.7383 13.5994C74.9391 13.4971 75.1049 13.3373 75.2147 13.1405L76.1152 13.1405ZM72.8247 11.613H75.2188C75.2306 11.4539 75.2089 11.2941 75.1553 11.1439C75.1017 10.9937 75.0172 10.8563 74.9073 10.7407C74.7974 10.625 74.6646 10.5337 74.5173 10.4724C74.37 10.4112 74.2115 10.3814 74.052 10.3851C73.8902 10.3831 73.7297 10.4134 73.5798 10.4744C73.43 10.5354 73.2938 10.6258 73.1794 10.7403C73.0651 10.8547 72.9747 10.9909 72.9138 11.1408C72.8529 11.2906 72.8226 11.4512 72.8247 11.613Z" fill="#161003"/>
<path d="M77.3765 14.8936H78.3336C78.4127 15.2374 78.8085 15.4595 79.4397 15.4595C80.2189 15.4595 80.6804 15.0894 80.6804 14.4629V13.5531H80.6105C80.4638 13.8078 80.2495 14.0169 79.9914 14.1574C79.7332 14.2979 79.4412 14.3643 79.1477 14.3493C77.9378 14.3493 77.1895 13.4138 77.1895 11.9947C77.1895 10.5495 77.946 9.6006 79.157 9.6006C79.4578 9.59013 79.7558 9.66254 80.0183 9.80993C80.2808 9.95731 80.4978 10.174 80.6455 10.4363H80.7195V9.67925H81.6158V14.4582C81.6158 15.5422 80.7668 16.2299 79.4263 16.2299C78.2421 16.23 77.4763 15.699 77.3765 14.8936ZM80.6979 11.9901C80.6979 11.0459 80.2096 10.441 79.4129 10.441C78.608 10.441 78.1557 11.0459 78.1557 11.9901C78.1557 12.9348 78.608 13.5398 79.4129 13.5398C80.2148 13.5397 80.6979 12.9394 80.6979 11.9901Z" fill="#161003"/>
<path d="M82.834 13.0798C82.834 12.2266 83.4693 11.7347 84.5969 11.6648L85.8809 11.5908V11.1817C85.8809 10.6811 85.5499 10.3984 84.9105 10.3984C84.3883 10.3984 84.0264 10.5901 83.9226 10.9252H83.017C83.1126 10.1111 83.8784 9.58887 84.9536 9.58887C86.142 9.58887 86.8122 10.1804 86.8122 11.1817V14.4203H85.9117V13.7542H85.8377C85.6875 13.9931 85.4765 14.1879 85.2264 14.3186C84.9762 14.4494 84.6959 14.5114 84.414 14.4984C84.215 14.5191 84.0139 14.4978 83.8236 14.4361C83.6333 14.3743 83.4581 14.2733 83.3092 14.1396C83.1604 14.006 83.0412 13.8426 82.9593 13.6601C82.8775 13.4775 82.8348 13.2799 82.834 13.0798ZM85.8809 12.6748V12.2785L84.7234 12.3525C84.0706 12.3962 83.7746 12.6183 83.7746 13.0361C83.7746 13.4627 84.1446 13.711 84.6535 13.711C84.8026 13.7261 84.9532 13.711 85.0964 13.6667C85.2396 13.6224 85.3723 13.5497 85.4868 13.4531C85.6014 13.3564 85.6953 13.2377 85.7629 13.104C85.8306 12.9703 85.8707 12.8243 85.8809 12.6748Z" fill="#161003"/>
<path d="M88.2793 9.68018H89.1798V10.407H89.2497C89.3505 10.1547 89.5287 9.94081 89.7586 9.7961C89.9886 9.65139 90.2584 9.58328 90.5295 9.60154C90.6696 9.59966 90.8095 9.61275 90.9469 9.6406V10.5638C90.7752 10.5271 90.6002 10.5081 90.4247 10.5072C90.2704 10.4934 90.1149 10.5119 89.9682 10.5618C89.8215 10.6116 89.6869 10.6915 89.5729 10.7964C89.459 10.9014 89.3683 11.029 89.3066 11.1711C89.2449 11.3132 89.2136 11.4666 89.2147 11.6215V14.4202H88.2793L88.2793 9.68018Z" fill="#161003"/>
<path d="M94.5508 9.67917H95.4513V10.4321H95.5212C95.6398 10.1617 95.8398 9.935 96.0933 9.78362C96.3469 9.63225 96.6413 9.56375 96.9357 9.58767C97.1663 9.57033 97.3979 9.60511 97.6132 9.68942C97.8286 9.77373 98.0222 9.90542 98.1798 10.0747C98.3374 10.244 98.4548 10.4466 98.5234 10.6675C98.5921 10.8884 98.6101 11.1218 98.5763 11.3506V14.419H97.6408V11.5855C97.6408 10.8238 97.3098 10.445 96.618 10.445C96.4614 10.4377 96.3051 10.4644 96.1598 10.5231C96.0145 10.5819 95.8836 10.6714 95.7761 10.7855C95.6686 10.8996 95.587 11.0356 95.537 11.1841C95.487 11.3327 95.4696 11.4903 95.4862 11.6462V14.4191H94.5508V9.67917Z" fill="#161003"/>
<path d="M99.7539 13.0798C99.7539 12.2266 100.389 11.7347 101.517 11.6648L102.801 11.5908V11.1817C102.801 10.6811 102.47 10.3984 101.83 10.3984C101.308 10.3984 100.946 10.5901 100.843 10.9252H99.9369C100.032 10.1111 100.798 9.58887 101.874 9.58887C103.062 9.58887 103.732 10.1804 103.732 11.1817V14.4203H102.832V13.7542H102.758C102.607 13.9931 102.396 14.1879 102.146 14.3186C101.896 14.4494 101.616 14.5114 101.334 14.4984C101.135 14.5191 100.934 14.4978 100.744 14.4361C100.553 14.3743 100.378 14.2733 100.229 14.1396C100.08 14.006 99.9611 13.8426 99.8792 13.6601C99.7974 13.4775 99.7547 13.2799 99.7539 13.0798ZM102.801 12.6748V12.2785L101.643 12.3525C100.991 12.3962 100.694 12.6183 100.694 13.0361C100.694 13.4627 101.065 13.711 101.573 13.711C101.723 13.7261 101.873 13.711 102.016 13.6667C102.159 13.6224 102.292 13.5497 102.407 13.4531C102.521 13.3564 102.615 13.2377 102.683 13.104C102.751 12.9703 102.791 12.8243 102.801 12.6748Z" fill="#161003"/>
</g>
<defs>
<clipPath id="clip0_6916_5836">
<rect width="126.316" height="40" fill="white"/>
</clipPath>
</defs>
</svg>
