<svg width="136" height="40" viewBox="0 0 136 40" fill="none" xmlns="http://www.w3.org/2000/svg">
<g clip-path="url(#clip0_6916_5826)">
<path d="M130.316 0H5.31641C2.55498 0 0.316406 2.23858 0.316406 5V35C0.316406 37.7614 2.55498 40 5.31641 40H130.316C133.078 40 135.316 37.7614 135.316 35V5C135.316 2.23858 133.078 0 130.316 0Z" fill="#FFF4A6"/>
<path d="M46.6225 9.5C46.5522 9.2848 46.4595 9.09197 46.3445 8.92152C46.2315 8.74893 46.0962 8.60192 45.9386 8.48047C45.783 8.35902 45.6062 8.26633 45.408 8.20241C45.2099 8.13849 44.9925 8.10653 44.756 8.10653C44.3683 8.10653 44.0156 8.20668 43.6982 8.40696C43.3807 8.60724 43.1282 8.90234 42.9407 9.29226C42.7532 9.68217 42.6594 10.1605 42.6594 10.7273C42.6594 11.294 42.7543 11.7724 42.9439 12.1623C43.1335 12.5522 43.3903 12.8473 43.7141 13.0476C44.038 13.2479 44.4023 13.348 44.8072 13.348C45.1822 13.348 45.5124 13.2681 45.7979 13.1083C46.0856 12.9464 46.3093 12.7184 46.4691 12.4244C46.631 12.1282 46.712 11.7798 46.712 11.3793L46.9549 11.4304H44.9862V10.7273H47.479V11.4304C47.479 11.9695 47.364 12.4382 47.1339 12.8366C46.9059 13.2351 46.5906 13.544 46.1879 13.7635C45.7873 13.9808 45.3271 14.0895 44.8072 14.0895C44.2276 14.0895 43.7184 13.9531 43.2795 13.6804C42.8427 13.4077 42.5018 13.0199 42.2567 12.517C42.0138 12.0142 41.8924 11.4176 41.8924 10.7273C41.8924 10.2095 41.9616 9.74396 42.1001 9.33061C42.2408 8.91513 42.4389 8.56143 42.6946 8.26953C42.9503 7.97763 43.2528 7.75391 43.6023 7.59837C43.9517 7.44283 44.3363 7.36506 44.756 7.36506C45.1012 7.36506 45.4229 7.41726 45.7212 7.52166C46.0217 7.62393 46.2891 7.76989 46.5234 7.95952C46.7599 8.14702 46.957 8.3718 47.1147 8.63388C47.2724 8.89382 47.381 9.18253 47.4407 9.5H46.6225ZM48.8366 14V7.45455H52.7868V8.15767H49.6292V10.3693H52.5823V11.0724H49.6292V13.2969H52.838V14H48.8366ZM53.8575 8.15767V7.45455H58.7666V8.15767H56.7084V14H55.9157V8.15767H53.8575ZM63.3137 7.45455V14H62.5211V7.45455H63.3137ZM64.545 8.15767V7.45455H69.4541V8.15767H67.3959V14H66.6032V8.15767H64.545ZM78.7314 10.7273C78.7314 11.4176 78.6067 12.0142 78.3574 12.517C78.1081 13.0199 77.7662 13.4077 77.3315 13.6804C76.8968 13.9531 76.4004 14.0895 75.8422 14.0895C75.2839 14.0895 74.7875 13.9531 74.3528 13.6804C73.9181 13.4077 73.5762 13.0199 73.3269 12.517C73.0776 12.0142 72.9529 11.4176 72.9529 10.7273C72.9529 10.0369 73.0776 9.44034 73.3269 8.9375C73.5762 8.43466 73.9181 8.04688 74.3528 7.77415C74.7875 7.50142 75.2839 7.36506 75.8422 7.36506C76.4004 7.36506 76.8968 7.50142 77.3315 7.77415C77.7662 8.04688 78.1081 8.43466 78.3574 8.9375C78.6067 9.44034 78.7314 10.0369 78.7314 10.7273ZM77.9643 10.7273C77.9643 10.1605 77.8695 9.68217 77.6799 9.29226C77.4924 8.90234 77.2377 8.60724 76.916 8.40696C76.5964 8.20668 76.2385 8.10653 75.8422 8.10653C75.4458 8.10653 75.0868 8.20668 74.7651 8.40696C74.4455 8.60724 74.1909 8.90234 74.0012 9.29226C73.8137 9.68217 73.72 10.1605 73.72 10.7273C73.72 11.294 73.8137 11.7724 74.0012 12.1623C74.1909 12.5522 74.4455 12.8473 74.7651 13.0476C75.0868 13.2479 75.4458 13.348 75.8422 13.348C76.2385 13.348 76.5964 13.2479 76.916 13.0476C77.2377 12.8473 77.4924 12.5522 77.6799 12.1623C77.8695 11.7724 77.9643 11.294 77.9643 10.7273ZM85.2544 7.45455V14H84.4874L80.9206 8.8608H80.8567V14H80.0641V7.45455H80.8311L84.4107 12.6065H84.4746V7.45455H85.2544Z" fill="#161003"/>
<path d="M68.4555 21.7498C66.1055 21.7498 64.1855 23.5398 64.1855 25.9998C64.1855 28.4598 66.1055 30.2498 68.4555 30.2498C70.8055 30.2498 72.7255 28.4498 72.7255 25.9998C72.7255 23.5498 70.8055 21.7498 68.4555 21.7498ZM68.4555 28.5798C67.1655 28.5798 66.0555 27.5198 66.0555 25.9998C66.0555 24.4798 67.1655 23.4198 68.4555 23.4198C69.7455 23.4198 70.8555 24.4698 70.8555 25.9998C70.8555 27.5298 69.7455 28.5798 68.4555 28.5798ZM59.1355 21.7498C56.7855 21.7498 54.8655 23.5398 54.8655 25.9998C54.8655 28.4598 56.7855 30.2498 59.1355 30.2498C61.4855 30.2498 63.4055 28.4498 63.4055 25.9998C63.4055 23.5498 61.4855 21.7498 59.1355 21.7498ZM59.1355 28.5798C57.8455 28.5798 56.7355 27.5198 56.7355 25.9998C56.7355 24.4798 57.8455 23.4198 59.1355 23.4198C60.4255 23.4198 61.5355 24.4698 61.5355 25.9998C61.5355 27.5298 60.4255 28.5798 59.1355 28.5798ZM48.0555 23.0598V24.8598H52.3755C52.2455 25.8698 51.9055 26.6198 51.3955 27.1298C50.7655 27.7598 49.7855 28.4498 48.0655 28.4498C45.4055 28.4498 43.3255 26.3098 43.3255 23.6498C43.3255 20.9898 45.4055 18.8498 48.0655 18.8498C49.4955 18.8498 50.5455 19.4098 51.3155 20.1398L52.5855 18.8698C51.5055 17.8398 50.0755 17.0498 48.0555 17.0498C44.4155 17.0498 41.3555 20.0098 41.3555 23.6598C41.3555 27.3098 44.4155 30.2698 48.0555 30.2698C50.0255 30.2698 51.5055 29.6298 52.6655 28.4198C53.8555 27.2298 54.2255 25.5498 54.2255 24.1998C54.2255 23.7798 54.1955 23.3898 54.1255 23.0698H48.0555V23.0598ZM93.3655 24.4598C93.0155 23.5098 91.9355 21.7498 89.7255 21.7498C87.5155 21.7498 85.7155 23.4698 85.7155 25.9998C85.7155 28.3798 87.5155 30.2498 89.9355 30.2498C91.8855 30.2498 93.0155 29.0598 93.4755 28.3698L92.0255 27.3998C91.5455 28.1098 90.8855 28.5798 89.9355 28.5798C88.9855 28.5798 88.3055 28.1498 87.8755 27.2898L93.5655 24.9398L93.3755 24.4598H93.3655ZM87.5655 25.8798C87.5155 24.2398 88.8355 23.3998 89.7855 23.3998C90.5255 23.3998 91.1555 23.7698 91.3655 24.2998L87.5655 25.8798ZM82.9455 29.9998H84.8155V17.4998H82.9455V29.9998ZM79.8855 22.6998H79.8255C79.4055 22.1998 78.6055 21.7498 77.5855 21.7498C75.4555 21.7498 73.5055 23.6198 73.5055 26.0198C73.5055 28.4198 75.4555 30.2598 77.5855 30.2598C78.5955 30.2598 79.4055 29.8098 79.8255 29.2898H79.8855V29.8998C79.8855 31.5298 79.0155 32.3998 77.6155 32.3998C76.4755 32.3998 75.7655 31.5798 75.4755 30.8898L73.8455 31.5698C74.3155 32.6998 75.5555 34.0798 77.6155 34.0798C79.8055 34.0798 81.6555 32.7898 81.6555 29.6498V22.0098H79.8855V22.6998ZM77.7355 28.5798C76.4455 28.5798 75.3655 27.4998 75.3655 26.0198C75.3655 24.5398 76.4455 23.4298 77.7355 23.4298C79.0255 23.4298 80.0055 24.5298 80.0055 26.0198C80.0055 27.5098 79.0055 28.5798 77.7355 28.5798ZM102.125 17.4998H97.6555V29.9998H99.5255V25.2598H102.135C104.205 25.2598 106.235 23.7598 106.235 21.3798C106.235 18.9998 104.205 17.4998 102.135 17.4998H102.125ZM102.165 23.5198H99.5155V19.2298H102.165C103.565 19.2298 104.355 20.3898 104.355 21.3698C104.355 22.3498 103.565 23.5098 102.165 23.5098V23.5198ZM113.705 21.7298C112.355 21.7298 110.955 22.3298 110.375 23.6398L112.035 24.3298C112.385 23.6398 113.045 23.4098 113.735 23.4098C114.695 23.4098 115.685 23.9898 115.695 25.0198V25.1498C115.355 24.9598 114.635 24.6698 113.745 24.6698C111.955 24.6698 110.145 25.6498 110.145 27.4798C110.145 29.1498 111.605 30.2298 113.245 30.2298C114.495 30.2298 115.195 29.6698 115.625 29.0098H115.685V29.9698H117.485V25.1798C117.485 22.9598 115.825 21.7198 113.685 21.7198L113.705 21.7298ZM113.475 28.5798C112.865 28.5798 112.015 28.2698 112.015 27.5198C112.015 26.5598 113.075 26.1898 113.995 26.1898C114.815 26.1898 115.205 26.3698 115.695 26.6098C115.555 27.7698 114.555 28.5898 113.475 28.5898V28.5798ZM124.055 21.9998L121.915 27.4198H121.855L119.635 21.9998H117.625L120.955 29.5798L119.055 33.7898H121.005L126.135 21.9998H124.065H124.055ZM107.255 29.9998H109.125V17.4998H107.255V29.9998Z" fill="#161003"/>
<path d="M21.0367 19.4192L10.3867 30.7192C10.7167 31.9492 11.8367 32.8492 13.1667 32.8492C13.6967 32.8492 14.1967 32.7092 14.6267 32.4492L14.6567 32.4292L26.6367 25.5192L21.0267 19.4092L21.0367 19.4192Z" fill="#EA4335"/>
<path d="M31.8069 17.4993H31.7969L26.6269 14.4893L20.7969 19.6793L26.6469 25.5293L31.7969 22.5593C32.6969 22.0693 33.3069 21.1193 33.3069 20.0293C33.3069 18.9393 32.7069 17.9893 31.8069 17.5093V17.4993Z" fill="#FBBC04"/>
<path d="M10.3871 9.2793C10.3271 9.5193 10.2871 9.7593 10.2871 10.0193V29.9893C10.2871 30.2493 10.3171 30.4893 10.3871 30.7293L21.3971 19.7193L10.3871 9.2793Z" fill="#4285F4"/>
<path d="M21.1167 19.9996L26.6267 14.4896L14.6567 7.54965C14.2267 7.28965 13.7167 7.13965 13.1667 7.13965C11.8367 7.13965 10.7167 8.04965 10.3867 9.26965L21.1167 19.9896V19.9996Z" fill="#34A853"/>
</g>
<defs>
<clipPath id="clip0_6916_5826">
<rect width="135" height="40" fill="white" transform="translate(0.316406)"/>
</clipPath>
</defs>
</svg>
