<svg viewBox="0 0 47.1 48" version="1.1" xmlns="http://www.w3.org/2000/svg" id="Camada_1">
  
  <defs>
    <style>
      .st0 {
        fill: #fff;
      }

      .st1 {
        fill: #221f1f;
      }
    </style>
  </defs>
  <path d="M23.6,0C10.5,0,0,10.7,0,24s10.5,24,23.6,24,23.6-10.7,23.6-24S36.6,0,23.6,0Z" class="st1"></path>
  <path d="M12.3,16.8c0-.4.4-.7.7-.9.5-.2,1.3-.2,1.8,0,.4.1,1.1.6,1.1,1.5.1,1.7-1.3,2.7-1.7,2.9-.2,0-.7.2-1,.1-.4,0-.6-.3-.7-.6-.2-.6-.4-2.2-.2-2.9Z" class="st0"></path>
  <path d="M38.6,31.8s-7.3-2.4-8.1-2.7c-.7-.3-5.2-2.3-6.2-2.8-1.8-.8-4.4-1.2-6.1-1.9,0-.3.1-.5.2-.7,0-.3-.1-.5-.4-.5-.3,0-.5.1-.5.4,0,.2-.1.5-.2.7-.2.9-.9,2.2-.9,3.2,0,1.1-.5,4.7-.8,4.7-.8,0-3.6,0-3.3-.2.3-.3,1.9-.4,2.6-.4,0,0,0-3.8.1-4.8,0-.2,0-5.2.4-6.3.3-1,.8-1.8,2.7-1.5,1.3.2,2.2.7,3.3,1.5.7.5,1.9,1.7,3.1,1.8,1.8.2,2.6.8,3,1.6.9.7,2.5,1.9,4.4,3,2.5,1.4,5.3,2.3,6,2.8,1.5,1,.7,2.3.7,2.3Z" class="st0"></path>
</svg>