<svg id="Layer_1" data-name="Layer 1" xmlns="http://www.w3.org/2000/svg" viewBox="0 0 402.96 87.42"><path d="M58.46,34.18c0,8-4.74,10.28-14.56,10.28-2.66,0-5.44-.11-7.64-.11v-21c2.08-.11,5-.11,7.51-.11,9.95,0,14.69,1.62,14.69,9.94ZM41.58,4c-10,0-24.74.46-36.43,1.5V22.85l5.1.46v50.3l-5.1.46V91.42H42.51V74.07l-6.25-.46v-10c3.47.12,5.55.12,8.45.12,20.58,0,39.89-4.4,39.89-29.6v-1C84.6,8.28,65.29,4,41.58,4" transform="translate(-5.15 -4)"/><polygon points="142.45 1.5 142.45 18.85 147.54 19.31 147.54 33.65 120.49 33.65 120.49 19.31 125.58 18.85 125.58 1.5 88.23 1.5 88.23 18.85 93.31 19.31 93.31 69.61 88.23 70.07 88.23 87.42 125.58 87.42 125.58 70.07 120.49 69.61 120.49 53.19 147.54 53.19 147.54 69.61 142.45 70.07 142.45 87.42 179.69 87.42 179.69 70.07 174.72 69.61 174.72 19.31 179.69 18.85 179.69 1.5 142.45 1.5"/><polygon points="190.32 1.5 190.32 18.85 195.41 19.31 195.41 69.61 190.32 70.07 190.32 87.42 227.67 87.42 227.67 70.07 222.58 69.61 222.58 19.31 227.67 18.85 227.67 1.5 190.32 1.5"/><path d="M293.87,22.62l4.05.34L289.6,60.89c-1.05,4.85-2,11.22-2.78,15.84h-.23c-.69-4.51-1.62-11-2.66-15.84L275.72,23l4-.34V5.5h-37V22.73l5.43.58,17.35,68.11H308l17.34-68.11,5.55-.58V5.5h-37Z" transform="translate(-5.15 -4)"/><polygon points="335.66 1.5 335.66 18.73 340.52 19.31 340.52 69.61 335.66 70.19 335.66 87.42 402.96 87.42 402.96 64.29 387.47 64.29 386.42 68.92 367.69 68.92 367.69 52.38 387.27 52.38 387.27 34.92 367.69 34.92 367.69 20.01 386.42 20.01 387.47 24.39 402.96 24.39 402.96 1.5 335.66 1.5"/></svg>