<svg viewBox="0 0 47.1 48" version="1.1" xmlns="http://www.w3.org/2000/svg" id="Camada_1">
  
  <defs>
    <style>
      .st0 {
        fill: #fff;
      }

      .st1 {
        fill: #221f1f;
      }
    </style>
  </defs>
  <path d="M23.6,0C10.6,0,0,10.7,0,23.9c0,13.3,10.5,24,23.5,24.1,13,0,23.6-10.7,23.6-23.9C47.1,10.8,36.6,0,23.6,0Z" class="st1"></path>
  <path d="M21.8,9.7c.5-.6,1.3-1,1.9-1.2.5-.1,1.6,0,2.2,1,1.2,1.8.3,3.8-.1,4.3-.2.2-.7.6-1.1.8-.4.1-.8,0-1.1-.2-.6-.6-1.9-2.3-2.1-3.1-.2-.5,0-1.1.3-1.5Z" class="st0"></path>
  <path d="M14.7,14.2c.2-.4.6-.7,1-.9.5-.1,1.2,0,1.7,0,.4.1.9.7.9,1.5,0,1.6-.9,2.3-1.9,2.5-.2,0-.7,0-1,0-.3-.1-.6-.3-.7-.6-.3-.6-.5-1.7,0-2.7Z" class="st0"></path>
  <path d="M11,20.7c.3,0,2.8.3,3.2.2.5-.3,1.3-3.3,2.5-3.3s2,2.7,2,2.9c.9.1,2.1.3,3.5.6.4,0,.5-.2.6-.6.4-1.1.5-1.3,1-2.7.4-1.2,1.1-2.4,3.6-3.3.9-.3,2.1-.4,2.9.7,2.3,3.5,2.1,7,3.5,10.6.4,1.1.3,2.3-.2,3.2-.2.7-.4,1.5-.6,2.3-1.3,0-3-.5-4.7-1.1,0-1.4.2-2.8.3-3.8-.5-2.4-2.1-3.7-3.1-5.7-.6,1-1.2,1.8-1.5,2.1-.5.5-.7.6-1.2.4-.6-.2-4.7-1.7-4.7-1.7-.5.1-1,.4-1.5.4s-.6-.2-.7-.3c-.3.2-.6.4-.8.5.4.7,1.1.8,1.4.8.8,0,1.4-.3,1.5-.4.4.1,2,.7,2,.7.4.8.2,1.7-.5,2.2-.5.4-1,.8-1.2,1.3-.9-.2-1.7-.3-2.6-.4.2-.4.4-.7.6-1.1-.9-.9-1.5-2-1.5-3-.2,0-.3.1-.4.1-.4,0-2-.4-2.7-.6-.5-.2-1.5-1.1-.9-1Z" class="st0"></path>
  <path d="M29.7,36.9c-7.3-1-15.4-11.4-24.5-6,11.9-11.8,29,9.9,32.7-2.6,2.9,4.1-1,9.6-8.3,8.6Z" class="st0"></path>
</svg>