<svg viewBox="0 0 47.1 48" version="1.1" xmlns="http://www.w3.org/2000/svg" id="Camada_1">
  
  <defs>
    <style>
      .st0 {
        fill: #fff;
      }

      .st1 {
        fill: #221f1f;
      }
    </style>
  </defs>
  <path d="M23.6,0C10.5,0,0,10.7,0,24s10.5,24,23.6,24,23.6-10.7,23.6-24S36.6,0,23.6,0Z" class="st1"></path>
  <g>
    <path d="M23.8,14.8c.3,0,.8,0,1.1-.2.4-.2,1.8-1.4,1.5-3.2-.2-.9-.9-1.4-1.3-1.5-.5,0-1.3,0-1.8.3-.4.2-.6.6-.7,1,0,.7.3,2.4.5,3,.1.3.4.5.8.5Z" class="st0"></path>
    <path d="M32.5,32.2c0-.2,0-.4-.1-.6,0-.2-.2-.4-.3-.5,0,0-5.5-6.1-6.5-7.2-.2-.2-.2-.5,0-.7.2-.2.5-.2.7,0l.7.8c.2-.5.4-1.1.9-1.7,1.3-1.7,1.6-3.2,1.6-5.9,0-1.2,1.3-4.2,1.6-6.5,0-.3-.2-.6-.5-.8-.7-.4-3.7-1.2-4.4-1.4-.2,0-.4-.5-.6-.6-.2,0-.5-.1-.6-.1-.1,0-.4.5-.5.6,0,.1,0,.5,0,.7,0,.1.4.4.6.5.2,0,.5-.4.8-.2.6.3,2.2,1.2,2.8,1.5.3.2.3.4.2.7-.2.4-1.4,2.9-1.4,2.9-.4.7-2.5,1.4-3.9,2,0,0-2.8-1.9-3.7-2.7-.4-.4-.6-.7-.7-1-.1-.7-.2-3.8-.2-4.6,0-.3.1-.8.2-1,0-.2-.1-.4-.2-.6,0-.2-.1-.7-.3-.8-.1-.2-.4-.3-.6-.2-.1,0-.3.6-.3.8,0,.3,0,.5,0,.8,0,.3,0,.5.1.6,0,0,0,.2,0,.3,0,0-.4,3.4-.5,4.8,0,.3-.1,1,.1,1.3.9,1.1,1.7,1.9,3.1,3.4,1.7,1.8,2,3.7,1.4,4.8-.5.8-1.9,2.2-2.7,3.5-1.6,2.7-6,13-7,15.5.6,0,3.5,0,4-.8.8-1.3,6.3-11.3,6.6-11.7.8.6,5.1,3.9,5.2,4.5.1.7,1,5.2,1.3,6.7.2,1.1,3.4,1.4,3.7,1.4-.2-1.5-.9-8.5-.9-8.5Z" class="st0"></path>
  </g>
</svg>