<svg viewBox="0 0 47.1 48" version="1.1" xmlns="http://www.w3.org/2000/svg" id="Camada_1">
  
  <defs>
    <style>
      .st0 {
        fill: #fff;
      }

      .st1 {
        fill: #221f1f;
      }
    </style>
  </defs>
  <path d="M23.6.1C10.6.1.1,10.8.1,24s10.5,23.9,23.5,23.9,23.5-10.7,23.5-23.9S36.5.1,23.6.1Z" class="st1"></path>
  <g>
    <path d="M31.4,19.9c-.9-.4-4.4-2.5-5.8-2.7-.5,0-1-.1-1.3,0-1.6.1-2.7,1.5-2.8,3.1-.2,1.9,1.2,3.7,1.8,6.9,1.1.3,4.1,1.4,5.5,1.7-.2-1.3-.6-2.9-1-4.5,2-1.2,3.9-2.9,4-3.3.2-.5,0-.9-.5-1.1ZM23.5,22.3l3-.9.3,1.2-3,.9-.3-1.2ZM24.7,26.8l-.3-1.2,3-.9.3,1.2-3,.9ZM27.6,22.7c-.1-.6-.2-1.2-.3-1.8.3,0,1.8.3,1.8.4,0,.1-.8.8-1.5,1.4Z" class="st0"></path>
    <path d="M20.6,13.2c0-.5.3-.8.7-1,.6-.3,1.4-.3,1.9-.2.5,0,1.2.6,1.3,1.5.3,1.8-1.2,3-1.6,3.2-.2.1-.8.2-1.1.2-.4,0-.7-.2-.8-.6-.2-.6-.6-2.4-.5-3.2Z" class="st0"></path>
    <path d="M21.3,18.4c-.5.8-.8,1.8-.6,3,0,0,0,0,0,0-1.8.1-3.9.3-4.1.3-2.5.2-3.5.3-4,.3-.4,0-1,.4-1.5.5-.3,0-.9-.6-1-1,0-.2.1-.6.2-.7.2-.1.8-.3,1-.3.2,0,.4.2.4.2,0,0,4.5-.9,4.9-1,.3,0,3.1-1,4.5-1.5Z" class="st0"></path>
    <rect transform="translate(-3.4 1.9) rotate(-8.6)" height=".9" width="2.5" y="23" x="10" class="st0"></rect>
    <rect transform="translate(-2.9 1.8) rotate(-8.6)" height=".9" width="2.5" y="19.4" x="9.5" class="st0"></rect>
    <path d="M29.1,34.7c-6.3-.9-13.2-9.8-21-5.2,10.2-10.1,24.9,8.5,28.1-2.3,2.5,3.5-.8,8.3-7.1,7.4Z" class="st0"></path>
  </g>
</svg>