<svg viewBox="0 0 47.1 48" version="1.1" xmlns="http://www.w3.org/2000/svg" id="Camada_1">
  
  <defs>
    <style>
      .st0 {
        fill: #fff;
      }

      .st1 {
        fill: #221f1f;
      }
    </style>
  </defs>
  <path d="M23.6,0C10.5,0,0,10.7,0,24s10.5,24,23.6,24,23.6-10.7,23.6-24S36.6,0,23.6,0Z" class="st1"></path>
  <path d="M22.8,13.9c.9-1,2.5-1.7,3.9-1.9.6,0,1.2.1,1.6.5.6.6,1,1.6,1.1,2.4,0,.6-.3,1.8-1.5,2.4-2.3,1.1-4,.3-4.9-.8-.2-.3-.6-.9-.7-1.4,0-.5,0-.9.4-1.3Z" class="st0"></path>
  <path d="M34.7,29.9c-.4.4-7.8.8-12.1.8s-4-2.1-4.7-3.1c1.1-1.4,1.7-2.4,2.3-3.7.1-.2,0-.5-.2-.6-.2-.1-.5,0-.6.2-.5,1.2-1.1,2.1-2,3.4-1.5,1.6-3.9,3.9-4.2,3.9-1.1,0-3.7,0-3.7-.1,0-.5,2.2-.8,3.2-.9,0,0,2.6-4.1,3.5-5.3.2-.3,1.2-4.3,2.7-5.9.3-.3,1.2-1.2,2.1-1.2,2.4,0,2.2,1.6,2.2,2.1,0,1.8-2.2,4.7,1.6,5.8.8.2,1.4,1,1.4,1.6,2.1.2,3.6.2,4.3.3.4,0-3.2-6.7-.5-7.7,1.2,2.3,5.4,9.9,4.9,10.6Z" class="st0"></path>
</svg>