<svg viewBox="0 0 47.1 48" version="1.1" xmlns="http://www.w3.org/2000/svg" id="Camada_1">
  
  <defs>
    <style>
      .st0 {
        fill: #fff;
      }

      .st1 {
        fill: #221f1f;
      }
    </style>
  </defs>
  <path d="M23.6,0C10.5,0,0,10.7,0,24s10.5,24,23.6,24,23.6-10.7,23.6-24S36.6,0,23.6,0Z" class="st1"></path>
  <path d="M18.5,10.9c0-.5.3-.8.7-1,.6-.3,1.4-.3,1.9-.2.5,0,1.2.6,1.3,1.5.3,1.8-1.2,3-1.6,3.2-.2.1-.8.2-1.1.2-.4,0-.7-.2-.8-.6-.2-.6-.6-2.4-.5-3.1Z" class="st0"></path>
  <path d="M31.4,37.3h-3.4l-1.7-1.7-6.2-.8c.2-.6.3-1.2.3-1.8,0-2.1-1.2-3.9-2.9-4.8l.8-3.3,10.5,10.6h2.7c.5,0,.9.4.9.9s-.4.9-.9.9Z" class="st0"></path>
  <path d="M25.3,30.8l.5-1.7c.3.3,1.5,1.5,1.7,1.8-.2.5-.4,1-.6,1.4l-1.5-1.5Z" class="st0"></path>
  <path d="M33.4,22.7h-2.2s0,0,0,0c-1.2.6-4.3,1.8-4.5,1.9-.2.1-.3.3,0,.6,0,0,.1.2.2.3,0,0,3.1-1.2,3.7-1.4-.5,1.1-1.1,2.5-1.7,3.9.7.9,1.2,1.5,1.3,1.7.2.3.4.7.4,1.1,0,.6-.4,1.3-.6,1.4-1.1-1.2-6.3-6.6-6.6-7-.4-.5-.5-.9,0-1.4.6-.7,5-3.5,6.5-4.4.2-.1.2-.4,0-.6-.2-.3-.5-.2-.7,0-.3.2-.6.3-.9.6-1.4-.4-3.1-1-4.2-2-.8,1.1-1.8,2.3-2.3,2.8-.1.2-.3.3-.5.4-.1,0-3.1.5-4.7.7l1.8,1c.2.1.3.4.2.7-.1.2-.4.3-.6.2l-1.8,6.9c0,.2.3.3.4,0,.1-.3.5-1,.9-.8,1.3.8,2.1,2.2,2.1,3.8,0,2.4-2,4.4-4.4,4.4s-4.4-2-4.4-4.4,1.7-4.2,3.9-4.4l1.7-6.4-1.8-1.1c-.2-.1-.3-.4-.2-.7.1-.2.4-.3.7-.2l.4.2c1.3-.4,4.8-1.5,5-1.7.1-.1.2-.2.3-.5.5-1.1,2-4.8,2.7-5.6.6-.7,1.3-1.2,2.2-.7,4.4,2.3,6.7,4.7,7.5,6.5.4,1,.5,2,0,2.8h.5c.4,0,.7.3.7.7,0,.4-.3.7-.7.7Z" class="st0"></path>
</svg>