<svg xmlns="http://www.w3.org/2000/svg" fill="none" viewBox="0 0 48 48" height="48" width="48">
<circle fill="#161003" r="24" cy="24" cx="24"></circle>
<path fill="white" d="M29.749 11.7455C30.3646 11.8093 30.9335 12.1032 31.3417 12.5684C31.75 13.0336 31.9676 13.6358 31.951 14.2545H30.7864C30.728 14.2517 30.6696 14.2604 30.6146 14.2801C30.5596 14.2999 30.509 14.3303 30.4657 14.3696C30.4224 14.409 30.3874 14.4564 30.3625 14.5094C30.3376 14.5623 30.3234 14.6196 30.3206 14.678C30.3177 14.7969 30.3616 14.9123 30.4427 14.9994C30.5238 15.0865 30.6358 15.1383 30.7547 15.1438H31.8874C31.8084 15.5687 31.6347 15.9703 31.3793 16.3189L32.385 20.0984C32.3215 20.3419 32.0145 21.644 31.6969 22.9568C31.4306 22.9144 31.1618 22.8896 30.8923 22.8827C30.7335 21.7499 30.6171 20.8606 30.6065 20.7653C30.3736 18.8597 30.2148 17.7905 30.1089 17.1764C29.9895 17.1926 29.8684 17.1926 29.749 17.1764C29.1197 17.0459 28.5546 16.7025 28.1489 16.204C27.7432 15.7056 27.5217 15.0825 27.5217 14.4398C27.5217 13.7971 27.7432 13.174 28.1489 12.6755C28.5546 12.177 29.1197 11.8336 29.749 11.7031V11.7455ZM9.43359 35.8937C9.5818 35.3326 12.3766 28.303 13.0012 27.075C13.0693 26.9207 13.1793 26.7886 13.3188 26.6939C14.7203 26.0796 16.2039 25.6731 17.7228 25.487C16.9881 25.7788 16.2798 26.133 15.6055 26.5456C15.3307 26.7261 15.1109 26.9789 14.9703 27.2761C14.5358 28.3526 14.1958 29.4649 13.954 30.6003C13.1706 32.3789 12.1014 34.9938 11.8367 35.3643C11.5502 35.7047 11.1594 35.941 10.7249 36.0367C10.2905 36.1324 9.83659 36.0821 9.43359 35.8937ZM35.6774 28.8641H22.1373C20.7187 29.0759 18.8767 28.9912 18.0827 29.2452C17.8843 29.3221 17.7245 29.4743 17.6381 29.6687C16.9923 30.8756 16.1242 35.2055 15.5208 35.8407C15.2757 36.1523 14.9437 36.384 14.5667 36.5065C14.1897 36.629 13.7849 36.6368 13.4035 36.5289C13.5517 35.9678 15.0444 28.8641 15.669 27.6361C15.7339 27.4798 15.8446 27.3469 15.9866 27.2549C17.9767 26.1956 20.1197 25.4527 22.3385 25.0529C27.1236 25.0529 27.3988 23.719 30.4583 23.7613C31.0597 23.7676 31.6577 23.853 32.2368 24.0154C32.4062 23.2849 33.0202 20.6912 33.0414 20.6171C33.6765 18.034 33.8883 17.007 33.9518 16.5624C34.0153 16.1178 33.846 15.4402 33.9518 14.9215C33.9518 14.7203 34.2376 14.5298 34.5447 14.4133C34.5303 13.7857 34.7517 13.1755 35.1652 12.7031C35.5788 12.2308 36.1544 11.9306 36.7784 11.8619C37.4099 12.0033 37.9744 12.3556 38.3789 12.8608C38.7835 13.3659 39.0039 13.9938 39.0039 14.6409C39.0039 15.2881 38.7835 15.916 38.3789 16.4211C37.9744 16.9262 37.4099 17.2785 36.7784 17.4199C36.5171 17.4171 36.2589 17.3623 36.019 17.2587C35.7791 17.1551 35.5622 17.0048 35.381 16.8165C35.2433 18.1398 34.9258 21.0512 34.9046 21.3688C35.1103 23.2334 35.1103 25.115 34.9046 26.9797C34.8634 27.1634 34.7994 27.3412 34.714 27.509H35.6351C35.8147 27.509 35.9871 27.5804 36.1141 27.7075C36.2412 27.8345 36.3126 28.0069 36.3126 28.1866C36.3126 28.3663 36.2412 28.5386 36.1141 28.6657C35.9871 28.7927 35.8147 28.8641 35.6351 28.8641H35.6774ZM39.6261 26.5986C39.0634 26.822 38.4485 26.88 37.8539 26.7656C37.2593 26.6511 36.7098 26.3691 36.2702 25.9528C36.0558 25.6745 35.9041 25.353 35.8256 25.0106C35.7901 24.8507 35.8011 24.6839 35.8574 24.5301C35.9137 24.3762 36.0129 24.2417 36.1432 24.1425C36.9794 23.5823 37.9022 23.1638 38.8745 22.9038C39.0712 22.8814 39.2705 22.9072 39.4549 22.9792C39.6394 23.0511 39.8036 23.167 39.9331 23.3167C40.3167 23.7946 40.5587 24.3704 40.6319 24.9788C40.6505 25.3221 40.5643 25.6629 40.3847 25.956C40.205 26.2491 39.9405 26.4806 39.6261 26.6197V26.5986Z"></path>
</svg>
