<svg viewBox="0 0 47.1 48" version="1.1" xmlns="http://www.w3.org/2000/svg" id="Camada_1">
  
  <defs>
    <style>
      .st0 {
        fill: #fff;
      }

      .st1 {
        fill: #221f1f;
      }
    </style>
  </defs>
  <path d="M23.6,0C10.5,0,0,10.7,0,24s10.5,24,23.6,24,23.6-10.7,23.6-24S36.6,0,23.6,0Z" class="st1"></path>
  <g>
    <path d="M29.2,23.1c.5-.2.6-.6.5-1-.3-1-1-3.9-2-5.6.6,2.1.3,4.6.5,6.8.5,0,.8-.2,1-.2Z" class="st0"></path>
    <path d="M23.1,14c.3,0,.9,0,1.2-.1.4-.2,1.7-1.1,1.9-2.7v-1s0,0,0,0c0-1-1-1.8-2.1-1.8-1.2,0-2.1.8-2.2,1.8v.4c0,.9.2,2.3.4,2.9.1.4.4.6.8.7Z" class="st0"></path>
    <path d="M30.7,37.2c-1-1.8-1.8-3.2-2.4-4.4-.1-.2-.3-.5-.3-.8-.1-1.2-.3-3.8-.3-4.5.1-1.7-.2-2.8-.3-3.6-.3-1.9,0-5.4-.5-7.2-.5-1.7-3.5-1.8-4.2-1.6-.5.2-.9.5-1.1,1.3-.3.8-.6,2-1.1,3.6,0,.2-.3.3-.4.2-.1,0-.4-.3-.7-.6l.3-.3-1.3-1.7c0,0,0-.1,0-.2,0,0,.1-.5-.1-.9-.4-.6-1.2-.7-1.9-.2-.7.4-.9,1.3-.5,1.8,0,0,0,0,0,0l1.9,2.8.4-.4c.9,1.1,2.1,2.5,2.3,2.6.5.2.8,0,1.1-.4.1-.2.3-.4.4-.7.2.7.3,1.4.4,1.8.1.5,0,.6-.6.9-1,.7-4,3.1-4.9,4-.5.4-.6.8-.6,1.1,0,.6,0,8.4,0,9.4.8,0,1.7-.8,1.8-1.6.3-1.6.4-3.9.5-5.1l1.2.5,3-3v-2c0-.3.2-.5.5-.5s.5.2.5.5v4.2s1.5,0,1.5,0c0,0,0,0,0,.1,0,.2.2.5.3.6.9,1.1,3.2,4.3,5,6.2.7-.2.6-1.5.2-2.2Z" class="st0"></path>
  </g>
</svg>