<svg id="Camada_1" xmlns="http://www.w3.org/2000/svg" viewBox="0 0 47.11 48">
  <path d="M23.56,0C10.55,0,0,10.74,0,24s10.55,24,23.56,24,23.55-10.74,23.55-24S36.56,0,23.56,0Z" fill="#221f1f"></path>
  <path d="M19.64,11.32c.07-.44.32-.79.71-.98.56-.26,1.31-.32,1.84-.23.45.08,1.17.55,1.3,1.49.26,1.77-1.14,2.92-1.57,3.13-.22.11-.76.22-1.06.18-.37-.05-.65-.24-.77-.56-.22-.6-.58-2.32-.46-3.04Z" fill="#fff"></path>
  <path d="M15.65,16.8c.14-.35.24-.4.56-.6.33-.22.72-.11,1.22-.17.87-.1.86.24.68.56-.18.32-1.51.6-1.51.6,0,0,.21,1.58.32,2.36.24-.35,1.02-1.42,1.71-2.3-.66,1.75.13,3.8.14,3.81-.79.74-1.82,1.47-2.1,1.62-.39.21-.93.22-.99-.25-.39-2.99-.18-5.28-.03-5.63Z" fill="#fff"></path>
  <path d="M11.16,15.79c0-1.56.93-2.83,2.07-2.83,1.02,0,1.86,1.01,2.03,2.33l-1.49.11c-.25.02-.43.23-.41.48.02.23.21.41.44.41.01,0,.02,0,.03,0l1.43-.11c-.14,1.38-1,2.44-2.05,2.44-1.14,0-2.07-1.27-2.07-2.83Z" fill="#fff"></path>
  <path d="M33.49,38.21c-1.73-.31-6.52-1.85-7.76-2.2-.28-.08-.43-.28-.54-.56-.9-2.14-1.19-4.92-1.33-6.83-1.15.48-3.82.93-6.18,1.2-.42.05-.51.16-.51.62,0,.85.28,3.73.47,5.79.07.77-.5,1.66-1.35,1.87-.29-1.03-2.19-8.87-2.28-9.5-.05-.33.03-.67.35-.86.58-.34,4.93-1.71,6.58-1.87.32-.03.41-.31.22-.94-.66-2.18-1.83-4.52-1.99-5.77-.22-1.72.33-2.8,1.17-3.28.39-.22,1.8-.57,3-.63.62-.05,1.34-.06,1.97.39.66.47,1.79,1.6,2.26,2.27.04-.99,0-2.64.11-2.92.11-.28.35-.49.85-.53.15,0,.39-.02.65-.02,0,.11-.01.22-.01.33,0,.27.02.54.05.79-.18.03-.56-.27-.55-.02,0,.23.88,3.59.49,5.88-.08.45-.35.6-.74.6-.73,0-1.92-1.64-2.89-2.88h0c-.15-.19-.42-.23-.62-.08-.2.15-.23.43-.09.62.2.27.5.64.82,1.02.1,1.08.19,2.52.51,3.19.36.77,1.03,1.94,1.14,3.57.08,1.25.17,4.26.23,5.42.01.26.03.47.24.6.8.51,4.07,2.53,4.99,3.15.88.58.75,1.56.75,1.56Z" fill="#fff"></path>
  <path d="M32.33,18.21c-1.27,0-2.29-1.53-2.29-3.43s1.03-3.43,2.29-3.43,2.29,1.54,2.29,3.43-1.03,3.43-2.29,3.43Z" fill="#fff"></path>
</svg>