<svg viewBox="0 0 47.1 48" version="1.1" xmlns="http://www.w3.org/2000/svg" id="Camada_1">
  
  <defs>
    <style>
      .st0 {
        fill: #fff;
      }

      .st1 {
        fill: #221f1f;
      }
    </style>
  </defs>
  <path d="M23.55,0C10.54,0,0,10.75,0,24s10.55,24,23.56,24,23.55-10.74,23.55-24S36.56,0,23.55,0Z" class="st1"></path>
  <path d="M22.8,9.99c.06-.4.27-.72.62-.89.5-.25,1.18-.32,1.66-.25.4.06,1.06.47,1.2,1.31.27,1.59-.96,2.65-1.34,2.86-.19.1-.68.22-.95.19-.33-.04-.59-.2-.7-.48-.21-.54-.57-2.08-.48-2.73Z" class="st0"></path>
  <path d="M17.47,14.3c.25-.04.68.25.75.43.15.37.04.56.09.78h0c.36.61,1.2,2,1.35,2.05.07.02.23.11.37-.04.67-.72,1.5-1.64,2.27-2.4-.16.25-.3.52-.37.83-.2.8-.2,1.68-.09,2.57h0c-.69.45-1.29.8-1.62,1.01-.38.24-.79.23-1.07-.17-.18-.25-.91-1.63-1.53-3.29h0c-.19-.21-.29-.28-.39-.37-.1-.1-.38-.48-.42-.56-.04-.09-.03-.17-.04-.37-.01-.18.42-.42.71-.46Z" class="st0"></path>
  <path d="M25.49,39.18c-.21-.53-1.52-8.55-1.59-9.14-.04-.35-.27-2.23-.44-4.07.5.1,1.03.16,1.63.16h.03c.56,0,1.13-.13,1.62-.36-.23,1.9-.56,4.33-.51,4.83.08.88.68,6.2.66,6.84-.03.64-.48,1.56-1.4,1.74Z" class="st0"></path>
  <path d="M31.75,17.5c-.13.3-1.26,2.02-2.63,3.3-.09.22-.16.5-.39.78-.13.16-.55.26-.82.07-.27-.19-.42-.49-.35-.69.08-.22.29-.51.37-.59.07-.08.43-.28.5-.33.06-.04.3-.19.43-.41.34-.72.51-1.1.62-1.48.07-.24-.02-.47-.27-.57-.59-.24-1.25-.52-1.92-.81-.02,1.87-.89,3.49,0,5.83.29.77.13,1.55-.22,1.92-.36.37-1.17.71-1.94.73-.76.01-1.39-.08-1.82-.22-.43-.14-3.23-1.48-3.4-1.59-.18-.11-.41-.06-.51.21-.75,1.95-2.01,4.64-2.16,4.95-.14.31-.36.7-.75.9-.49.25-1.02.24-1.23.15.45-1.5,2.28-7.51,2.47-7.99.22-.57.53-.92,1.18-.73.65.19,2.6.55,4.33.89.04-1.85-.91-3.64-.62-5.55.27-1.82,1.67-2.48,2.56-2.46h0c1.89-.05,5.34,2.13,6.3,2.78.37.25.47.47.28.91Z" class="st0"></path>
</svg>