<svg viewBox="0 0 47.1 48" version="1.1" xmlns="http://www.w3.org/2000/svg" id="Camada_1">
  
  <defs>
    <style>
      .st0 {
        fill: #fff;
      }

      .st1 {
        fill: #221f1f;
      }
    </style>
  </defs>
  <path d="M23.6,0C10.5,0,0,10.7,0,24s10.5,24,23.6,24,23.6-10.7,23.6-24S36.6,0,23.6,0Z" class="st1"></path>
  <path d="M23.6,6.4c0-.4.3-.8.7-1,.5-.3,1.3-.3,1.8-.2.4,0,1.1.5,1.3,1.5.3,1.7-1.1,2.9-1.5,3.1-.2.1-.8.2-1,.2-.4,0-.6-.2-.8-.5-.2-.6-.6-2.3-.5-3Z" class="st0"></path>
  <path d="M15.3,38.1c-2.3,0-4.2-1.9-4.2-4.2s1.6-3.9,3.7-4.2l2.2-8.3-1.2-.7c-.2-.1-.3-.4-.2-.6.1-.2.4-.3.6-.2l1.4.8c.2-.2.5-.5,1.1-.8,0,0,2.3-2.7,3-3.5.1-.1,2.9-4.6,3.6-5.4,1.7-1.8,3.1-1.1,3.6-.3,2.1,4.1,2.6,9.9,1.6,10.8h.8c.4,0,.7.3.7.7,0,.4-.3.7-.7.7h-2.7c-1.3.6-3.6,1.5-3.7,1.5-.2,0-.3.3,0,.5,0,.1.2.2.3.3,0,0,1-.4,1.6-.6h0c.6-.2,1.2-.5,1.8-.8-.4,1-.9,2.3-1.5,3.6.6.6,1,1.1,1.1,1.2.2.3.4.7.4,1.1,0,.5-.4,1.2-.6,1.4-.5-.5-6.3-6.1-6.4-6.3-.4-.5-.5-.9,0-1.4.6-.7,6.6-4.5,6.8-4.6.1,0,.2-.3,0-.5-.2-.3-.6-.2-.8,0,0,0-.3.2-.3.2-.3-.8-1.5-2.1-2-3.5-1,1.1-2.3,2.2-2.7,2.7-.6.9-3.5,3-3.8,3.2-.1,0-.2.1-.3.1l1.1.6c.2.1.3.4.2.6-.1.2-.4.3-.6.2l-.4-.2-2,7.5c1.7.6,2.9,2.1,2.9,4s-1.9,4.2-4.2,4.2Z" class="st0"></path>
  <path d="M25.7,30.7c-.2.4-.3.7-.4,1.1l-1.5-1.5.3-1.2c.2.3,1.3,1.4,1.6,1.7Z" class="st0"></path>
  <path d="M31,38.1h-3.3l-1.8-1.8-5.7-.7c.2-.5.3-1.1.3-1.7,0-2-1.1-3.7-2.7-4.5l.8-3,9.9,10h2.5c.5,0,.9.4.9.9s-.4.9-.9.9Z" class="st0"></path>
</svg>