<svg viewBox="0 0 47.1 48" version="1.1" xmlns="http://www.w3.org/2000/svg" id="Camada_1">
  
  <defs>
    <style>
      .st0 {
        fill: #fff;
      }

      .st1 {
        fill: #221f1f;
      }
    </style>
  </defs>
  <path d="M23.6,0C10.5,0,0,10.7,0,24s10.5,24,23.6,24,23.6-10.7,23.6-24S36.6,0,23.6,0Z" class="st1"></path>
  <g>
    <path d="M35.3,13.7c-.4-1.4-.8-2.4-.8-2.4,0,0-1.2.8-1.1,2,0,.2,0,.5.1.9l1.7-.5Z" class="st0"></path>
    <path d="M13.6,26c.3.2.7.2,1,0,.3-.2.7-.6.8-.8.2-.5.8-2.4-.6-3.8-.7-.7-1.7-.7-2.1-.5-.5.3-1.2.8-1.5,1.4-.2.4-.2.9,0,1.3.4.7,1.8,2,2.4,2.4Z" class="st0"></path>
    <path d="M31.2,24.6h0c1.5-.2,6-1,6.3-1.1.3-.2.6-.8.5-1.3,0-.3-1.2-3.8-2.2-6.8l-2,.6c.3,1.7.6,3.6.7,4.4,0,.2,0,.3-.3.3-.3,0-3.8,0-4.4,0-.5-.3-1.1-.5-1.7-.4-.3,0-.8.1-2.8.9-1.4.5-2.5.8-3.2.8-1.8,0-3.6,0-4.8.9-.7.5-1,1.3-1.1,2.1,0,1.3-.4,3.3-.6,5.1,0,.3-.3.6-.6.6-1.6.2-5,.9-5,.9-.7.1-2.1.3-2.4.7-.2.3,1,.3,1.8.2.3,0,.9,0,1,0h0c1.7,0,5.9,0,6.1,0,.6,0,.7-.3.9-.8.3-.5,1.3-2.5,1.8-4.2,2.9.7,5.5-1.7,9.5-2.5.7-.1,1.8-.4,2.3-.4Z" class="st0"></path>
    <path d="M30.5,29.3c0-.3.4-2.2.6-3.7-.5,0-1.3.3-1.9.4h0c-.7.1-1.3.3-1.9.5.2,2,.4,4.1.5,5,0,.9.5,1.1,1.3,1.2.4,0,3.3,0,6,0v-2.4c-1.3-.2-2.9-.3-4.2-.4-.4,0-.5-.3-.4-.5Z" class="st0"></path>
    <path d="M39.1,31.2c-.4-.4-1-.5-1.4-.6-.1,0-.4,0-.8-.1v2.2c1.2,0,2.3,0,2.8,0,0-.3-.2-.9-.6-1.5Z" class="st0"></path>
  </g>
</svg>