<svg id="Camada_1" xmlns="http://www.w3.org/2000/svg" version="1.1" viewBox="0 0 47.1 48">
  

  <path d="M23.6,0C10.5,0,0,10.7,0,24s10.5,24,23.6,24,23.6-10.7,23.6-24S36.6,0,23.6,0Z" class="circle"></path>
  <g>
    <path d="M22.4,8.7c0-.4.3-.8.7-1,.6-.3,1.3-.4,1.8-.3.4,0,1.2.5,1.3,1.5.3,1.8-1.1,3-1.5,3.2-.2.1-.8.2-1.1.2-.4,0-.7-.2-.8-.5-.2-.6-.6-2.3-.5-3Z" fill="white"></path>
    <path d="M10.5,11.8c.1-.2.7-.3.9-.2.2,0,.5.6.6.6.5,0,3.5.4,4.5.5,1.3.1,4.4.3,6.3.4-.9.4-1.7,1.4-1.7,3-1.5-.5-4-1.3-4.9-1.6-1-.3-4.1-1.2-4.6-1.3-.1,0-.2,0-.3,0-.2,0-.7-.1-.8-.2,0,0-.2-.1-.3-.3-.1-.2,0-.7.3-.9Z" fill="white"></path>
    <path d="M26.2,33.4c0,1,.8,6.9.7,7.6,0,.7-.5,1.7-1.6,1.9-.2-.6-1.7-9.5-1.8-10.2,0-.5-.5-3.9-.6-6.3.6.2,1.4.2,2,.2s1.4-.2,2-.5c-.2,1.9-.8,6.4-.8,7.2Z" fill="white"></path>
    <path d="M32.5,16.7c-.1.3-1.3,2.3-2.7,3.9,0,.2-.1.6-.4.9-.1.2-.6.3-.9.1-.3-.2-.5-.5-.4-.7,0-.3.3-.6.4-.7,0,0,.5-.3.5-.4,0,0,.3-.2.5-.5.3-.8.5-1.2.6-1.7,0-.3,0-.5-.3-.6-.7-.2-1.5-.5-2.3-.8.1,1.7-1.1,3.9,0,6.7.3.8.2,1.3-.1,1.9-.3.6-1.3,1-2.3,1s-1.4-.1-2.1-.3c-1.2-.4-4.4-2.2-5.5-2.4-1-.2-7-1.3-7.7-1.6-.7-.2-1.5-1.1-1.3-1.9.6,0,9.6,1.2,10.3,1.3.4,0,2.3.4,4.2.8,0-2-1-3.9-.7-5.9.3-2.1,1.9-2.7,2.9-2.7,2.1,0,6,2.1,7,2.7.4.3.6.5.4,1Z" fill="white"></path>
  </g>
</svg>