<svg id="Camada_1" xmlns="http://www.w3.org/2000/svg" version="1.1" viewBox="0 0 47.1 48">
  
  <path d="M23.6,0C10.5,0,0,10.7,0,24s10.5,24,23.6,24,23.6-10.7,23.6-24S36.6,0,23.6,0Z" class="circle"></path>
  <g>
    <path class="st0" d="M11,15.7c-.6,0-1.4.2-1.9.5-.4.3-.6.7-.6,1.2,0,.8.6,2.6,1,3.2.2.3.5.5.9.5.3,0,.9-.2,1.1-.4.4-.3,1.7-1.7,1.2-3.6-.3-1-1.1-1.4-1.6-1.4Z" fill="white"></path>
    <path class="st0" d="M25.8,27.7c-.2,0-.4-.1-.3-.3.2-.6.3-1.1.4-1.6-.6-.4-1.2-.9-1.4-1-.3-.1-.9-.1-1.8,0-.4,1.8-.7,3.8-.8,5.1,0,.7.1,1.1.7,1,.7-.1,4.3-.7,8.6-1.4-.2-.1-2.3-1.5-2.8-1.8-1.3,0-2.4,0-2.6,0Z" fill="white"></path>
    <path class="st0" d="M38.7,30.3c-.7-.7-3.5-2.6-6-4.6-2.5-2-4.7-4.3-5.1-4.8-.4-.6-1.1-1.3-2.1-1.6-.4-.1-.9-.3-2.7-.3-1.9,0-4.5-1.2-6.9-1.2s-2.2,0-2.8,1.5c-.2.6-.2,1.1-.2,1.4.1,1.2,2.3,6.8,2.3,7.1.2,1.1.9,5.1.9,5.1-.7.2-2.6.3-2.6.8s2.7,0,3.6,0c.3,0,.2-4.4-.1-5.7-.3-1.1-.5-2.7-.7-4.5,1.6.5,4.4.3,5.5.2,1.2,0,2.5-.2,3.2.1.3.1,2.4,1.7,3.9,2.8,2.8,2,10.3,6.1,10.3,6.1,0,0,1-1.1-.5-2.5Z" fill="white"></path>
  </g>
</svg>