<svg viewBox="0 0 47.1 48" version="1.1" xmlns="http://www.w3.org/2000/svg" id="Camada_1">
  
  <defs>
    <style>
      .st0 {
        fill: #fff;
      }

      .st1 {
        fill: #221f1f;
      }
    </style>
  </defs>
  <path d="M23.6,0C10.5,0,0,10.7,0,24s10.5,24,23.6,24,23.6-10.7,23.6-24S36.6,0,23.6,0Z" class="st1"></path>
  <g>
    <path d="M23.6,18.2c.3,0,.9-.3,1-.5.4-.3,1.5-1.9.8-3.7-.4-.9-1.3-1.2-1.7-1.2-.6,0-1.3.3-1.8.7-.4.3-.5.7-.5,1.2,0,.8.9,2.5,1.3,3,.2.3.5.4.9.4Z" class="st0"></path>
    <path d="M28.5,17.9c-.7-.6-1.2-.7-2.3-.3-2.7,1.1-6.6,4.6-7.9,5.5-1,.7-5.4,3.6-5.7,4-.3.4-.6.7-.7,1.3,0,.7.4.3.8-.2.7-.8.7-.5.7,0,0,.3.3.1.3-.2,0-.5-.1-.5.5-1,.6-.4,4-2,4.8-2.5,1-.5,4.7-2.1,5.8-2.6.4,1.2,1.9,2.7,2.9,3.6.4,0,.8,0,1.4,0h0c.3,0,.5.2.5.5,0,.3-.2.5-.5.5-.2,0-.4,0-.6,0,0,0,0,0,0,0-2.4.2-6.5.8-7.1.9-.6,0-9.4,1.7-10.2,1.9,0,.8,1.1,1.4,1.8,1.4.7,0,6.8-.8,7.8-.9,1.5-.2,8.3.6,10.2.2,1.4-.3,2.4-1.6,2.4-2.8,0-2.1-1.6-6.3-4.9-9.3Z" class="st0"></path>
  </g>
</svg>