<svg viewBox="0 0 47.1 48" version="1.1" xmlns="http://www.w3.org/2000/svg" id="Camada_1">
  
  <defs>
    <style>
      .st0 {
        fill: #fff;
      }

      .st1 {
        fill: #221f1f;
      }
    </style>
  </defs>
  <path d="M23.6,0C10.5,0,0,10.7,0,24s10.5,24,23.6,24,23.6-10.7,23.6-24S36.6,0,23.6,0Z" class="st1"></path>
  <g>
    <path d="M23.5,18.7c.5.2,2.4.6,3.8-.8.7-.8.6-1.7.4-2.1-.3-.5-.9-1.1-1.5-1.4-.4-.2-.9-.2-1.3,0-.7.4-1.9,1.9-2.3,2.5-.2.3-.2.7,0,1,.2.3.6.7.9.8Z" class="st0"></path>
    <path d="M20.8,18.5c0-1.8,0-4.2,0-5.7s.2-6.4,0-6.8c-.1-.5-.8.5-.9,1.3-.1.7-.7,4.3-.9,5.3-.2,1-1.1,5-1.5,6.7.8-.7,1.9-1,3.1-.8Z" class="st0"></path>
    <path d="M27.4,38.2c-.7-.3-2.9-1.2-4.7-1.8-1.2.6-2.4,1.2-3.2,1.7,3,.7,9.1,2,9.1,2,0,0,0-1.4-1.2-1.8Z" class="st0"></path>
    <path d="M36.6,21.8c-.5-.2-5.8-.7-7.2-.9-1.9-.2-7.6-1.9-8.5-1.9s-1.5.1-2.4.8c-3.6,2.7-3.2,7.3-3.1,10,0,3.4.6,5.6,1.5,7.8.2.4.8.6,1.2.4.4-.1,9-4.6,9-4.6,0,0-.8-1.1-2-.9-1.1.2-3.7,1.5-5.5,2.2-.2,0-.3,0-.3-.2,0-.2.1-2.5.2-3.7.4-.5,1-1.3.8-2.4-.3-1.3.3-2.4.7-2.9.6-.7,1.3-1.6,1.8-2.5,1.6,0,5.5,0,6.5,0,1.1,0,5-.2,5.7-.2.9,0,2-.6,1.5-.8Z" class="st0"></path>
  </g>
</svg>